<?xml version="1.0" encoding="UTF-8"?>
<svg xmlns="http://www.w3.org/2000/svg" xmlns:xlink="http://www.w3.org/1999/xlink" width="311px" height="311px" viewBox="0 0 311 311" version="1.1">
<defs>
<filter id="alpha" filterUnits="objectBoundingBox" x="0%" y="0%" width="100%" height="100%">
  <feColorMatrix type="matrix" in="SourceGraphic" values="0 0 0 0 1 0 0 0 0 1 0 0 0 0 1 0 0 0 1 0"/>
</filter>
<mask id="mask0">
  <g filter="url(#alpha)">
<rect x="0" y="0" width="311" height="311" style="fill:rgb(0%,0%,0%);fill-opacity:0.701961;stroke:none;"/>
  </g>
</mask>
<clipPath id="clip1">
  <rect x="0" y="0" width="311" height="311"/>
</clipPath>
<g id="surface5" clip-path="url(#clip1)">
<path style=" stroke:none;fill-rule:nonzero;fill:rgb(100%,100%,100%);fill-opacity:1;" d="M 249.855469 270.109375 C 259.808594 263.089844 267.960938 253.8125 273.644531 243.039062 C 309.195312 176.429688 301.164062 78.210938 232.695312 36.082031 C 201.050781 16.613281 155.5 4.292969 121.289062 24.289062 C 93.546875 40.503906 76.542969 71.039062 62.472656 98.816406 C 53.636719 116.3125 46.351562 135.09375 35.453125 151.4375 C 21.320312 172.636719 5.765625 200.949219 21.472656 225.582031 C 42.875 259.132812 83.296875 274.449219 119.953125 284.539062 C 159.722656 295.480469 204.445312 297.035156 241.179688 275.6875 C 244.152344 273.960938 247.046875 272.101562 249.855469 270.109375 Z M 249.855469 270.109375 "/>
</g>
<mask id="mask1">
  <g filter="url(#alpha)">
<rect x="0" y="0" width="311" height="311" style="fill:rgb(0%,0%,0%);fill-opacity:0.301961;stroke:none;"/>
  </g>
</mask>
<mask id="mask2">
  <g filter="url(#alpha)">
<rect x="0" y="0" width="311" height="311" style="fill:rgb(0%,0%,0%);fill-opacity:0.301961;stroke:none;"/>
  </g>
</mask>
<clipPath id="clip3">
  <rect x="0" y="0" width="311" height="311"/>
</clipPath>
<g id="surface9" clip-path="url(#clip3)">
<path style="fill:none;stroke-width:1;stroke-linecap:butt;stroke-linejoin:miter;stroke:rgb(0%,0%,0%);stroke-opacity:1;stroke-miterlimit:10;" d="M 281.144531 50.050781 L 217.078125 50.050781 L 217.078125 134.191406 L 281.144531 134.191406 Z M 281.144531 50.050781 "/>
</g>
<mask id="mask3">
  <g filter="url(#alpha)">
<rect x="0" y="0" width="311" height="311" style="fill:rgb(0%,0%,0%);fill-opacity:0.301961;stroke:none;"/>
  </g>
</mask>
<clipPath id="clip4">
  <rect x="0" y="0" width="311" height="311"/>
</clipPath>
<g id="surface12" clip-path="url(#clip4)">
<path style="fill:none;stroke-width:1;stroke-linecap:butt;stroke-linejoin:miter;stroke:rgb(0%,0%,0%);stroke-opacity:1;stroke-miterlimit:10;" d="M 269.386719 65.488281 L 228.835938 65.488281 L 228.835938 118.753906 L 269.386719 118.753906 Z M 269.386719 65.488281 "/>
</g>
<clipPath id="clip2">
  <rect x="0" y="0" width="311" height="311"/>
</clipPath>
<g id="surface14" clip-path="url(#clip2)">
<use xlink:href="#surface9" mask="url(#mask2)"/>
<use xlink:href="#surface12" mask="url(#mask3)"/>
</g>
<mask id="mask4">
  <g filter="url(#alpha)">
<rect x="0" y="0" width="311" height="311" style="fill:rgb(0%,0%,0%);fill-opacity:0.301961;stroke:none;"/>
  </g>
</mask>
<clipPath id="clip5">
  <rect x="0" y="0" width="311" height="311"/>
</clipPath>
<g id="surface17" clip-path="url(#clip5)">
<path style="fill:none;stroke-width:1;stroke-linecap:round;stroke-linejoin:round;stroke:rgb(0%,0%,0%);stroke-opacity:1;stroke-miterlimit:4;" d="M 220.703125 37.6875 L 232.878906 37.6875 L 232.878906 25.515625 L 220.703125 25.515625 Z M 220.703125 37.6875 "/>
</g>
<mask id="mask5">
  <g filter="url(#alpha)">
<rect x="0" y="0" width="311" height="311" style="fill:rgb(0%,0%,0%);fill-opacity:0.301961;stroke:none;"/>
  </g>
</mask>
<clipPath id="clip6">
  <rect x="0" y="0" width="311" height="311"/>
</clipPath>
<g id="surface20" clip-path="url(#clip6)">
<path style="fill:none;stroke-width:1;stroke-linecap:round;stroke-linejoin:round;stroke:rgb(0%,0%,0%);stroke-opacity:1;stroke-miterlimit:4;" d="M 236.644531 37.6875 L 248.816406 37.6875 L 248.816406 25.515625 L 236.644531 25.515625 Z M 236.644531 37.6875 "/>
</g>
<mask id="mask6">
  <g filter="url(#alpha)">
<rect x="0" y="0" width="311" height="311" style="fill:rgb(0%,0%,0%);fill-opacity:0.301961;stroke:none;"/>
  </g>
</mask>
<clipPath id="clip7">
  <rect x="0" y="0" width="311" height="311"/>
</clipPath>
<g id="surface23" clip-path="url(#clip7)">
<path style="fill:none;stroke-width:2;stroke-linecap:round;stroke-linejoin:round;stroke:rgb(0%,0%,0%);stroke-opacity:1;stroke-miterlimit:4;" d="M 223.320312 30.328125 L 225.398438 34.484375 L 231.507812 27.761719 "/>
</g>
<mask id="mask7">
  <g filter="url(#alpha)">
<rect x="0" y="0" width="311" height="311" style="fill:rgb(0%,0%,0%);fill-opacity:0.301961;stroke:none;"/>
  </g>
</mask>
<clipPath id="clip8">
  <rect x="0" y="0" width="311" height="311"/>
</clipPath>
<g id="surface26" clip-path="url(#clip8)">
<path style="fill:none;stroke-width:1;stroke-linecap:round;stroke-linejoin:round;stroke:rgb(0%,0%,0%);stroke-opacity:1;stroke-miterlimit:4;" d="M 36.4375 216.277344 L 48.609375 216.277344 L 48.609375 204.101562 L 36.4375 204.101562 Z M 36.4375 216.277344 "/>
</g>
<mask id="mask8">
  <g filter="url(#alpha)">
<rect x="0" y="0" width="311" height="311" style="fill:rgb(0%,0%,0%);fill-opacity:0.301961;stroke:none;"/>
  </g>
</mask>
<clipPath id="clip9">
  <rect x="0" y="0" width="311" height="311"/>
</clipPath>
<g id="surface29" clip-path="url(#clip9)">
<path style="fill:none;stroke-width:1;stroke-linecap:round;stroke-linejoin:round;stroke:rgb(0%,0%,0%);stroke-opacity:1;stroke-miterlimit:4;" d="M 52.371094 216.277344 L 64.542969 216.277344 L 64.542969 204.101562 L 52.371094 204.101562 Z M 52.371094 216.277344 "/>
</g>
<mask id="mask9">
  <g filter="url(#alpha)">
<rect x="0" y="0" width="311" height="311" style="fill:rgb(0%,0%,0%);fill-opacity:0.301961;stroke:none;"/>
  </g>
</mask>
<clipPath id="clip10">
  <rect x="0" y="0" width="311" height="311"/>
</clipPath>
<g id="surface32" clip-path="url(#clip10)">
<path style="fill:none;stroke-width:2;stroke-linecap:round;stroke-linejoin:round;stroke:rgb(0%,0%,0%);stroke-opacity:1;stroke-miterlimit:4;" d="M 39.042969 208.917969 L 41.121094 213.070312 L 47.226562 206.347656 "/>
</g>
<mask id="mask10">
  <g filter="url(#alpha)">
<rect x="0" y="0" width="311" height="311" style="fill:rgb(0%,0%,0%);fill-opacity:0.301961;stroke:none;"/>
  </g>
</mask>
<clipPath id="clip11">
  <rect x="0" y="0" width="311" height="311"/>
</clipPath>
<g id="surface35" clip-path="url(#clip11)">
<path style="fill:none;stroke-width:1;stroke-linecap:round;stroke-linejoin:round;stroke:rgb(0%,0%,0%);stroke-opacity:1;stroke-miterlimit:4;" d="M 94.101562 216.277344 L 106.273438 216.277344 L 106.273438 204.101562 L 94.101562 204.101562 Z M 94.101562 216.277344 "/>
</g>
<mask id="mask11">
  <g filter="url(#alpha)">
<rect x="0" y="0" width="311" height="311" style="fill:rgb(0%,0%,0%);fill-opacity:0.301961;stroke:none;"/>
  </g>
</mask>
<clipPath id="clip12">
  <rect x="0" y="0" width="311" height="311"/>
</clipPath>
<g id="surface38" clip-path="url(#clip12)">
<path style="fill:none;stroke-width:1;stroke-linecap:round;stroke-linejoin:round;stroke:rgb(0%,0%,0%);stroke-opacity:1;stroke-miterlimit:4;" d="M 110.042969 216.277344 L 122.21875 216.277344 L 122.21875 204.101562 L 110.042969 204.101562 Z M 110.042969 216.277344 "/>
</g>
<mask id="mask12">
  <g filter="url(#alpha)">
<rect x="0" y="0" width="311" height="311" style="fill:rgb(0%,0%,0%);fill-opacity:0.301961;stroke:none;"/>
  </g>
</mask>
<clipPath id="clip13">
  <rect x="0" y="0" width="311" height="311"/>
</clipPath>
<g id="surface41" clip-path="url(#clip13)">
<path style="fill:none;stroke-width:2;stroke-linecap:round;stroke-linejoin:round;stroke:rgb(0%,0%,0%);stroke-opacity:1;stroke-miterlimit:4;" d="M 96.714844 208.917969 L 98.792969 213.070312 L 104.898438 206.347656 "/>
</g>
<mask id="mask13">
  <g filter="url(#alpha)">
<rect x="0" y="0" width="311" height="311" style="fill:rgb(0%,0%,0%);fill-opacity:0.301961;stroke:none;"/>
  </g>
</mask>
<mask id="mask14">
  <g filter="url(#alpha)">
<rect x="0" y="0" width="311" height="311" style="fill:rgb(0%,0%,0%);fill-opacity:0.301961;stroke:none;"/>
  </g>
</mask>
<clipPath id="clip15">
  <rect x="0" y="0" width="311" height="311"/>
</clipPath>
<g id="surface45" clip-path="url(#clip15)">
<path style="fill:none;stroke-width:1;stroke-linecap:round;stroke-linejoin:round;stroke:rgb(0%,0%,0%);stroke-opacity:1;stroke-miterlimit:4;" d="M 112.980469 31.601562 C 117.238281 30.914062 120.136719 26.902344 119.445312 22.644531 C 118.757812 18.382812 114.746094 15.488281 110.488281 16.179688 C 106.226562 16.867188 103.332031 20.878906 104.023438 25.136719 C 104.710938 29.394531 108.722656 32.289062 112.980469 31.601562 Z M 112.980469 31.601562 "/>
</g>
<mask id="mask15">
  <g filter="url(#alpha)">
<rect x="0" y="0" width="311" height="311" style="fill:rgb(0%,0%,0%);fill-opacity:0.301961;stroke:none;"/>
  </g>
</mask>
<clipPath id="clip16">
  <rect x="0" y="0" width="311" height="311"/>
</clipPath>
<g id="surface48" clip-path="url(#clip16)">
<path style="fill:none;stroke-width:1;stroke-linecap:round;stroke-linejoin:round;stroke:rgb(0%,0%,0%);stroke-opacity:1;stroke-miterlimit:4;" d="M 113.917969 26.714844 L 111.734375 23.890625 L 111.734375 19.445312 "/>
</g>
<clipPath id="clip14">
  <rect x="0" y="0" width="311" height="311"/>
</clipPath>
<g id="surface50" clip-path="url(#clip14)">
<use xlink:href="#surface45" mask="url(#mask14)"/>
<use xlink:href="#surface48" mask="url(#mask15)"/>
</g>
<mask id="mask16">
  <g filter="url(#alpha)">
<rect x="0" y="0" width="311" height="311" style="fill:rgb(0%,0%,0%);fill-opacity:0.301961;stroke:none;"/>
  </g>
</mask>
<mask id="mask17">
  <g filter="url(#alpha)">
<rect x="0" y="0" width="311" height="311" style="fill:rgb(0%,0%,0%);fill-opacity:0.301961;stroke:none;"/>
  </g>
</mask>
<clipPath id="clip18">
  <rect x="0" y="0" width="311" height="311"/>
</clipPath>
<g id="surface54" clip-path="url(#clip18)">
<path style=" stroke:none;fill-rule:nonzero;fill:rgb(0%,0%,0%);fill-opacity:1;" d="M 257.558594 173.738281 L 256.402344 173.738281 L 256.203125 172.417969 L 254.796875 172.417969 L 254.597656 173.738281 L 253.546875 173.738281 L 254.714844 166.453125 L 256.386719 166.453125 Z M 254.945312 171.429688 L 256.046875 171.429688 L 255.492188 167.742188 Z M 254.945312 171.429688 "/>
</g>
<mask id="mask18">
  <g filter="url(#alpha)">
<rect x="0" y="0" width="311" height="311" style="fill:rgb(0%,0%,0%);fill-opacity:0.301961;stroke:none;"/>
  </g>
</mask>
<clipPath id="clip19">
  <rect x="0" y="0" width="311" height="311"/>
</clipPath>
<g id="surface57" clip-path="url(#clip19)">
<path style=" stroke:none;fill-rule:nonzero;fill:rgb(0%,0%,0%);fill-opacity:1;" d="M 273.847656 168.128906 L 273.847656 168.386719 C 273.890625 168.679688 273.84375 168.976562 273.714844 169.238281 C 273.582031 169.5 273.371094 169.71875 273.113281 169.855469 C 273.40625 169.988281 273.648438 170.214844 273.800781 170.492188 C 273.953125 170.777344 274.011719 171.101562 273.964844 171.417969 L 273.964844 172.039062 C 273.996094 172.273438 273.96875 172.511719 273.890625 172.734375 C 273.8125 172.960938 273.6875 173.160156 273.519531 173.328125 C 273.351562 173.492188 273.144531 173.621094 272.921875 173.695312 C 272.699219 173.769531 272.460938 173.792969 272.226562 173.761719 L 270.425781 173.761719 L 270.425781 166.453125 L 272.15625 166.453125 C 273.339844 166.453125 273.847656 167 273.847656 168.128906 Z M 271.570312 167.503906 L 271.570312 169.433594 L 272.019531 169.433594 C 272.441406 169.433594 272.703125 169.246094 272.703125 168.660156 L 272.703125 168.257812 C 272.703125 167.734375 272.53125 167.503906 272.117188 167.503906 Z M 271.570312 170.472656 L 271.570312 172.710938 L 272.226562 172.710938 C 272.609375 172.710938 272.847656 172.535156 272.847656 171.996094 L 272.847656 171.371094 C 272.847656 170.703125 272.621094 170.488281 272.105469 170.488281 Z M 271.570312 170.472656 "/>
</g>
<mask id="mask19">
  <g filter="url(#alpha)">
<rect x="0" y="0" width="311" height="311" style="fill:rgb(0%,0%,0%);fill-opacity:0.301961;stroke:none;"/>
  </g>
</mask>
<clipPath id="clip20">
  <rect x="0" y="0" width="311" height="311"/>
</clipPath>
<g id="surface60" clip-path="url(#clip20)">
<path style=" stroke:none;fill-rule:nonzero;fill:rgb(0%,0%,0%);fill-opacity:1;" d="M 290.34375 171.050781 L 290.34375 172.015625 C 290.34375 173.183594 289.765625 173.847656 288.640625 173.847656 C 287.511719 173.847656 286.929688 173.183594 286.929688 172.015625 L 286.929688 168.226562 C 286.929688 167.058594 287.511719 166.390625 288.640625 166.390625 C 289.765625 166.390625 290.34375 167.058594 290.34375 168.226562 L 290.34375 168.933594 L 289.261719 168.933594 L 289.261719 168.125 C 289.261719 167.605469 289.03125 167.410156 288.671875 167.410156 C 288.308594 167.410156 288.046875 167.605469 288.046875 168.125 L 288.046875 172.0625 C 288.046875 172.585938 288.277344 172.773438 288.671875 172.773438 C 289.0625 172.773438 289.261719 172.585938 289.261719 172.0625 L 289.261719 171.050781 Z M 290.34375 171.050781 "/>
</g>
<mask id="mask20">
  <g filter="url(#alpha)">
<rect x="0" y="0" width="311" height="311" style="fill:rgb(0%,0%,0%);fill-opacity:0.301961;stroke:none;"/>
  </g>
</mask>
<clipPath id="clip21">
  <rect x="0" y="0" width="311" height="311"/>
</clipPath>
<g id="surface63" clip-path="url(#clip21)">
<path style="fill:none;stroke-width:1;stroke-linecap:butt;stroke-linejoin:miter;stroke:rgb(0%,0%,0%);stroke-opacity:1;stroke-miterlimit:10;" d="M 259.835938 177.710938 L 250.984375 177.710938 L 250.984375 186.5625 L 259.835938 186.5625 Z M 259.835938 177.710938 "/>
</g>
<mask id="mask21">
  <g filter="url(#alpha)">
<rect x="0" y="0" width="311" height="311" style="fill:rgb(0%,0%,0%);fill-opacity:0.301961;stroke:none;"/>
  </g>
</mask>
<clipPath id="clip22">
  <rect x="0" y="0" width="311" height="311"/>
</clipPath>
<g id="surface66" clip-path="url(#clip22)">
<path style="fill:none;stroke-width:1;stroke-linecap:butt;stroke-linejoin:miter;stroke:rgb(0%,0%,0%);stroke-opacity:1;stroke-miterlimit:10;" d="M 276.300781 177.710938 L 267.449219 177.710938 L 267.449219 186.5625 L 276.300781 186.5625 Z M 276.300781 177.710938 "/>
</g>
<mask id="mask22">
  <g filter="url(#alpha)">
<rect x="0" y="0" width="311" height="311" style="fill:rgb(0%,0%,0%);fill-opacity:0.301961;stroke:none;"/>
  </g>
</mask>
<clipPath id="clip23">
  <rect x="0" y="0" width="311" height="311"/>
</clipPath>
<g id="surface69" clip-path="url(#clip23)">
<path style="fill:none;stroke-width:1;stroke-linecap:butt;stroke-linejoin:miter;stroke:rgb(0%,0%,0%);stroke-opacity:1;stroke-miterlimit:10;" d="M 292.761719 177.710938 L 283.910156 177.710938 L 283.910156 186.5625 L 292.761719 186.5625 Z M 292.761719 177.710938 "/>
</g>
<clipPath id="clip17">
  <rect x="0" y="0" width="311" height="311"/>
</clipPath>
<g id="surface71" clip-path="url(#clip17)">
<use xlink:href="#surface54" mask="url(#mask17)"/>
<use xlink:href="#surface57" mask="url(#mask18)"/>
<use xlink:href="#surface60" mask="url(#mask19)"/>
<use xlink:href="#surface63" mask="url(#mask20)"/>
<use xlink:href="#surface66" mask="url(#mask21)"/>
<use xlink:href="#surface69" mask="url(#mask22)"/>
</g>
<mask id="mask23">
  <g filter="url(#alpha)">
<rect x="0" y="0" width="311" height="311" style="fill:rgb(0%,0%,0%);fill-opacity:0.2;stroke:none;"/>
  </g>
</mask>
<mask id="mask24">
  <g filter="url(#alpha)">
<rect x="0" y="0" width="311" height="311" style="fill:rgb(0%,0%,0%);fill-opacity:0.2;stroke:none;"/>
  </g>
</mask>
<clipPath id="clip25">
  <rect x="0" y="0" width="311" height="311"/>
</clipPath>
<g id="surface75" clip-path="url(#clip25)">
<path style=" stroke:none;fill-rule:nonzero;fill:rgb(0%,0%,0%);fill-opacity:1;" d="M 219.316406 179.335938 C 219.640625 181.917969 219.828125 184.519531 219.878906 187.121094 L 219.878906 179.863281 C 219.527344 179.546875 219.316406 179.335938 219.316406 179.335938 Z M 219.316406 179.335938 "/>
</g>
<mask id="mask25">
  <g filter="url(#alpha)">
<rect x="0" y="0" width="311" height="311" style="fill:rgb(0%,0%,0%);fill-opacity:0.2;stroke:none;"/>
  </g>
</mask>
<clipPath id="clip26">
  <rect x="0" y="0" width="311" height="311"/>
</clipPath>
<g id="surface78" clip-path="url(#clip26)">
<path style=" stroke:none;fill-rule:nonzero;fill:rgb(0%,0%,0%);fill-opacity:1;" d="M 255.019531 214.882812 L 255.019531 216.746094 C 255.230469 216.183594 255.441406 215.636719 255.640625 215.09375 L 255.640625 214.871094 L 255.722656 214.871094 C 255.804688 214.664062 255.878906 214.453125 255.953125 214.246094 L 255.640625 214.246094 L 255.640625 206.503906 L 258.050781 206.503906 C 258.050781 206.410156 258.050781 206.3125 258.050781 206.21875 C 258.050781 206.125 258.050781 205.992188 258.050781 205.882812 L 255.640625 205.882812 L 255.640625 199.25 C 255.449219 199.132812 255.242188 199.019531 255.019531 198.898438 L 255.019531 205.882812 L 248.488281 205.882812 L 248.488281 198.105469 L 253.539062 198.105469 L 252.371094 197.484375 L 248.488281 197.484375 L 248.488281 195.433594 L 247.867188 195.101562 L 247.867188 197.464844 L 241.335938 197.464844 L 241.335938 191.707031 L 240.714844 191.382812 L 240.714844 197.464844 L 234.183594 197.464844 L 234.183594 189.710938 L 237.4375 189.710938 L 236.230469 189.089844 L 234.183594 189.089844 L 234.183594 188.035156 L 233.5625 187.714844 L 233.5625 189.089844 L 227.03125 189.089844 L 227.03125 184.390625 C 226.8125 184.28125 226.605469 184.175781 226.40625 184.082031 L 226.40625 189.089844 L 219.9375 189.089844 C 219.9375 189.292969 219.9375 189.496094 219.9375 189.710938 L 226.40625 189.710938 L 226.40625 197.484375 L 219.996094 197.484375 C 219.996094 197.691406 219.996094 197.894531 219.996094 198.105469 L 226.40625 198.105469 L 226.40625 205.882812 L 219.878906 205.882812 L 219.878906 202.925781 C 219.753906 205.964844 219.527344 209.148438 219.253906 212.386719 L 219.253906 214.253906 L 219.09375 214.253906 L 219.035156 214.875 L 219.253906 214.875 L 219.253906 222.675781 L 218.320312 222.675781 L 218.261719 223.296875 L 219.285156 223.296875 L 219.285156 231.074219 L 217.519531 231.074219 L 217.464844 231.695312 L 219.285156 231.695312 L 219.285156 239.46875 L 216.859375 239.46875 L 216.824219 240.09375 L 219.3125 240.09375 L 219.3125 247.867188 L 216.554688 247.867188 C 216.554688 248.078125 216.554688 248.285156 216.554688 248.488281 L 219.316406 248.488281 L 219.316406 256.265625 L 216.574219 256.265625 C 216.574219 256.476562 216.574219 256.679688 216.574219 256.886719 L 219.3125 256.886719 L 219.3125 264.660156 L 216.699219 264.660156 C 216.699219 264.871094 216.699219 265.078125 216.699219 265.28125 L 219.300781 265.28125 L 219.300781 280.054688 L 219.921875 280.054688 L 219.921875 265.265625 L 226.40625 265.265625 L 226.40625 280.035156 L 227.03125 280.035156 L 227.03125 265.265625 L 233.5625 265.265625 L 233.5625 280.035156 L 234.183594 280.035156 L 234.183594 265.265625 L 240.714844 265.265625 L 240.714844 280.035156 L 241.335938 280.035156 L 241.335938 265.265625 L 245.523438 265.265625 C 245.523438 265.058594 245.523438 264.855469 245.578125 264.640625 L 241.335938 264.640625 L 241.335938 256.886719 L 246.3125 256.886719 C 246.3125 256.679688 246.355469 256.476562 246.375 256.265625 L 241.335938 256.265625 L 241.335938 248.488281 L 247.082031 248.488281 C 247.082031 248.277344 247.121094 248.078125 247.144531 247.867188 L 241.335938 247.867188 L 241.335938 240.09375 L 247.867188 240.09375 L 247.867188 240.917969 L 248.140625 238.535156 C 248.226562 237.839844 248.347656 237.117188 248.488281 236.378906 L 248.488281 231.695312 L 249.652344 231.695312 L 249.839844 231.074219 L 248.488281 231.074219 L 248.488281 223.296875 L 252.53125 223.296875 C 252.613281 223.09375 252.6875 222.882812 252.769531 222.675781 L 248.488281 222.675781 L 248.488281 214.902344 Z M 248.488281 206.503906 L 255.019531 206.503906 L 255.019531 214.277344 L 248.488281 214.277344 Z M 226.40625 264.640625 L 219.878906 264.640625 L 219.878906 256.886719 L 226.40625 256.886719 Z M 226.40625 256.246094 L 219.878906 256.246094 L 219.878906 248.46875 L 226.40625 248.46875 Z M 226.40625 247.847656 L 219.878906 247.847656 L 219.878906 240.09375 L 226.40625 240.09375 Z M 226.40625 239.449219 L 219.878906 239.449219 L 219.878906 231.675781 L 226.40625 231.675781 Z M 226.40625 231.054688 L 219.878906 231.054688 L 219.878906 223.296875 L 226.40625 223.296875 Z M 226.40625 222.65625 L 219.878906 222.65625 L 219.878906 214.882812 L 226.40625 214.882812 Z M 226.40625 214.261719 L 219.878906 214.261719 L 219.878906 206.503906 L 226.40625 206.503906 Z M 233.5625 264.640625 L 227.03125 264.640625 L 227.03125 256.886719 L 233.5625 256.886719 Z M 233.5625 256.246094 L 227.03125 256.246094 L 227.03125 248.46875 L 233.5625 248.46875 Z M 233.5625 247.847656 L 227.03125 247.847656 L 227.03125 240.09375 L 233.5625 240.09375 Z M 233.5625 239.449219 L 227.03125 239.449219 L 227.03125 231.675781 L 233.5625 231.675781 Z M 233.5625 231.054688 L 227.03125 231.054688 L 227.03125 223.296875 L 233.5625 223.296875 Z M 233.5625 222.65625 L 227.03125 222.65625 L 227.03125 214.882812 L 233.5625 214.882812 Z M 233.5625 214.261719 L 227.03125 214.261719 L 227.03125 206.503906 L 233.5625 206.503906 Z M 233.5625 205.863281 L 227.03125 205.863281 L 227.03125 198.089844 L 233.5625 198.089844 Z M 233.5625 197.464844 L 227.03125 197.464844 L 227.03125 189.710938 L 233.5625 189.710938 Z M 240.714844 264.640625 L 234.183594 264.640625 L 234.183594 256.886719 L 240.714844 256.886719 Z M 240.714844 256.246094 L 234.183594 256.246094 L 234.183594 248.46875 L 240.714844 248.46875 Z M 240.714844 247.847656 L 234.183594 247.847656 L 234.183594 240.09375 L 240.714844 240.09375 Z M 240.714844 239.449219 L 234.183594 239.449219 L 234.183594 231.675781 L 240.714844 231.675781 Z M 240.714844 231.054688 L 234.183594 231.054688 L 234.183594 223.296875 L 240.714844 223.296875 Z M 240.714844 222.65625 L 234.183594 222.65625 L 234.183594 214.882812 L 240.714844 214.882812 Z M 240.714844 214.261719 L 234.183594 214.261719 L 234.183594 206.503906 L 240.714844 206.503906 Z M 240.714844 205.863281 L 234.183594 205.863281 L 234.183594 198.089844 L 240.714844 198.089844 Z M 247.867188 239.449219 L 241.335938 239.449219 L 241.335938 231.675781 L 247.867188 231.675781 Z M 247.867188 231.054688 L 241.335938 231.054688 L 241.335938 223.296875 L 247.867188 223.296875 Z M 247.867188 222.65625 L 241.335938 222.65625 L 241.335938 214.882812 L 247.867188 214.882812 Z M 247.867188 214.261719 L 241.335938 214.261719 L 241.335938 206.503906 L 247.867188 206.503906 Z M 247.867188 205.863281 L 241.335938 205.863281 L 241.335938 198.089844 L 247.867188 198.089844 Z M 247.867188 205.863281 "/>
</g>
<clipPath id="clip24">
  <rect x="0" y="0" width="311" height="311"/>
</clipPath>
<g id="surface80" clip-path="url(#clip24)">
<use xlink:href="#surface75" mask="url(#mask24)"/>
<use xlink:href="#surface78" mask="url(#mask25)"/>
</g>
<mask id="mask26">
  <g filter="url(#alpha)">
<rect x="0" y="0" width="311" height="311" style="fill:rgb(0%,0%,0%);fill-opacity:0.2;stroke:none;"/>
  </g>
</mask>
<clipPath id="clip27">
  <rect x="0" y="0" width="311" height="311"/>
</clipPath>
<g id="surface83" clip-path="url(#clip27)">
<path style=" stroke:none;fill-rule:nonzero;fill:rgb(0%,0%,0%);fill-opacity:1;" d="M 197.796875 198.089844 L 197.796875 201.265625 C 198.007812 200.695312 198.214844 200.140625 198.417969 199.605469 L 198.417969 198.089844 L 199.003906 198.089844 L 199.246094 197.464844 L 198.417969 197.464844 L 198.417969 189.710938 L 202.335938 189.710938 C 202.378906 189.515625 202.429688 189.304688 202.460938 189.089844 L 198.417969 189.089844 L 198.417969 185.183594 C 198.214844 185.214844 198.007812 185.242188 197.796875 185.292969 L 197.796875 189.089844 L 191.265625 189.089844 L 191.265625 188.664062 L 190.644531 188.980469 L 190.644531 189.089844 L 190.433594 189.089844 L 189.1875 189.710938 L 190.644531 189.710938 L 190.644531 197.484375 L 184.113281 197.484375 L 184.113281 192.136719 L 183.488281 192.429688 L 183.488281 197.464844 L 176.960938 197.464844 L 176.960938 195.480469 L 176.335938 195.773438 L 176.335938 197.464844 L 172.722656 197.464844 L 171.40625 198.089844 L 176.335938 198.089844 L 176.335938 205.882812 L 169.804688 205.882812 L 169.804688 198.851562 L 169.183594 199.152344 L 169.183594 205.882812 L 162.652344 205.882812 L 162.652344 204.316406 C 162.304688 206.578125 162.097656 208.863281 162.03125 211.15625 L 162.03125 214.265625 L 161.808594 214.265625 L 161.75 214.890625 L 162.03125 214.890625 L 162.03125 222.675781 L 160.359375 222.675781 L 160.226562 223.296875 L 162.03125 223.296875 L 162.03125 231.074219 L 158.542969 231.074219 C 158.496094 231.277344 158.449219 231.488281 158.40625 231.695312 L 162.03125 231.695312 L 162.03125 239.46875 L 156.652344 239.46875 C 156.601562 239.683594 156.558594 239.886719 156.507812 240.09375 L 162.03125 240.09375 L 162.03125 247.867188 L 155.5 247.867188 L 155.5 244.445312 L 154.878906 247.132812 L 154.878906 247.835938 L 154.71875 247.835938 L 154.574219 248.457031 L 154.878906 248.457031 L 154.878906 256.265625 L 152.75 256.265625 L 152.601562 256.886719 L 154.878906 256.886719 L 154.878906 264.660156 L 149.597656 264.660156 C 148.964844 264.832031 148.339844 265.039062 147.730469 265.28125 L 147.730469 268.667969 C 147.917969 268.742188 148.121094 268.828125 148.351562 268.933594 L 148.351562 265.28125 L 154.878906 265.28125 L 154.878906 273.992188 C 155.097656 274.300781 155.300781 274.613281 155.5 274.929688 L 155.5 265.289062 L 162.03125 265.289062 L 162.03125 280.0625 L 162.652344 280.0625 L 162.652344 265.265625 L 169.183594 265.265625 L 169.183594 280.035156 L 169.804688 280.035156 L 169.804688 265.265625 L 176.335938 265.265625 L 176.335938 280.035156 L 176.960938 280.035156 L 176.960938 265.265625 L 183.488281 265.265625 L 183.488281 280.035156 L 184.113281 280.035156 L 184.113281 265.265625 L 189.21875 265.265625 L 189.21875 264.640625 L 184.113281 264.640625 L 184.113281 256.886719 L 189.480469 256.886719 L 189.480469 256.265625 L 184.113281 256.265625 L 184.113281 248.488281 L 189.746094 248.488281 L 189.746094 247.867188 L 184.113281 247.867188 L 184.113281 240.09375 L 190.027344 240.09375 C 190.027344 239.886719 190.027344 239.675781 190.027344 239.46875 L 184.113281 239.46875 L 184.113281 231.695312 L 190.332031 231.695312 C 190.332031 231.488281 190.332031 231.285156 190.363281 231.074219 L 184.113281 231.074219 L 184.113281 223.296875 L 190.644531 223.296875 L 190.644531 227.894531 C 190.804688 226.570312 191.011719 225.207031 191.265625 223.828125 L 191.265625 223.296875 L 191.363281 223.296875 C 191.402344 223.09375 191.445312 222.886719 191.484375 222.675781 L 191.265625 222.675781 L 191.265625 214.902344 L 193.347656 214.902344 C 193.40625 214.695312 193.46875 214.492188 193.523438 214.277344 L 191.265625 214.277344 L 191.265625 206.503906 L 195.929688 206.503906 C 196.003906 206.300781 196.074219 206.085938 196.140625 205.882812 L 191.265625 205.882812 L 191.265625 198.105469 Z M 191.265625 189.710938 L 197.796875 189.710938 L 197.796875 197.484375 L 191.265625 197.484375 Z M 162.03125 264.660156 L 155.5 264.660156 L 155.5 256.886719 L 162.03125 256.886719 Z M 162.03125 256.265625 L 155.5 256.265625 L 155.5 248.488281 L 162.03125 248.488281 Z M 169.183594 264.660156 L 162.652344 264.660156 L 162.652344 256.886719 L 169.183594 256.886719 Z M 169.183594 256.265625 L 162.652344 256.265625 L 162.652344 248.488281 L 169.183594 248.488281 Z M 169.183594 247.867188 L 162.652344 247.867188 L 162.652344 240.09375 L 169.183594 240.09375 Z M 169.183594 239.46875 L 162.652344 239.46875 L 162.652344 231.695312 L 169.183594 231.695312 Z M 169.183594 231.074219 L 162.652344 231.074219 L 162.652344 223.296875 L 169.183594 223.296875 Z M 169.183594 222.675781 L 162.652344 222.675781 L 162.652344 214.902344 L 169.183594 214.902344 Z M 169.183594 214.277344 L 162.652344 214.277344 L 162.652344 206.503906 L 169.183594 206.503906 Z M 176.335938 264.660156 L 169.804688 264.660156 L 169.804688 256.886719 L 176.335938 256.886719 Z M 176.335938 256.265625 L 169.804688 256.265625 L 169.804688 248.488281 L 176.335938 248.488281 Z M 176.335938 247.867188 L 169.804688 247.867188 L 169.804688 240.09375 L 176.335938 240.09375 Z M 176.335938 239.46875 L 169.804688 239.46875 L 169.804688 231.695312 L 176.335938 231.695312 Z M 176.335938 231.074219 L 169.804688 231.074219 L 169.804688 223.296875 L 176.335938 223.296875 Z M 176.335938 222.675781 L 169.804688 222.675781 L 169.804688 214.902344 L 176.335938 214.902344 Z M 176.335938 214.277344 L 169.804688 214.277344 L 169.804688 206.503906 L 176.335938 206.503906 Z M 183.488281 264.660156 L 176.960938 264.660156 L 176.960938 256.886719 L 183.488281 256.886719 Z M 183.488281 256.265625 L 176.960938 256.265625 L 176.960938 248.488281 L 183.488281 248.488281 Z M 183.488281 247.867188 L 176.960938 247.867188 L 176.960938 240.09375 L 183.488281 240.09375 Z M 183.488281 239.46875 L 176.960938 239.46875 L 176.960938 231.695312 L 183.488281 231.695312 Z M 183.488281 231.074219 L 176.960938 231.074219 L 176.960938 223.296875 L 183.488281 223.296875 Z M 183.488281 222.675781 L 176.960938 222.675781 L 176.960938 214.902344 L 183.488281 214.902344 Z M 183.488281 214.277344 L 176.960938 214.277344 L 176.960938 206.503906 L 183.488281 206.503906 Z M 183.488281 205.882812 L 176.960938 205.882812 L 176.960938 198.105469 L 183.488281 198.105469 Z M 190.644531 222.675781 L 184.113281 222.675781 L 184.113281 214.902344 L 190.644531 214.902344 Z M 190.644531 214.277344 L 184.113281 214.277344 L 184.113281 206.503906 L 190.644531 206.503906 Z M 190.644531 205.882812 L 184.113281 205.882812 L 184.113281 198.105469 L 190.644531 198.105469 Z M 190.644531 205.882812 "/>
</g>
<mask id="mask27">
  <g filter="url(#alpha)">
<rect x="0" y="0" width="311" height="311" style="fill:rgb(0%,0%,0%);fill-opacity:0.2;stroke:none;"/>
  </g>
</mask>
<clipPath id="clip28">
  <rect x="0" y="0" width="311" height="311"/>
</clipPath>
<g id="surface86" clip-path="url(#clip28)">
<path style=" stroke:none;fill-rule:nonzero;fill:rgb(14.901961%,19.607843%,21.960784%);fill-opacity:1;" d="M 277.101562 268.398438 L 277.101562 265.289062 L 278.722656 265.289062 C 278.792969 265.085938 278.847656 264.878906 278.898438 264.667969 L 277.101562 264.667969 L 277.101562 256.886719 L 278.035156 256.886719 C 277.964844 256.6875 277.890625 256.476562 277.820312 256.265625 L 277.101562 256.265625 L 277.101562 254.367188 C 276.902344 253.851562 276.695312 253.320312 276.480469 252.792969 L 276.480469 256.265625 L 269.949219 256.265625 L 269.949219 248.488281 L 274.636719 248.488281 C 274.542969 248.285156 274.457031 248.078125 274.363281 247.867188 L 269.949219 247.867188 L 269.949219 240.09375 L 270.820312 240.09375 C 270.71875 239.886719 270.625 239.683594 270.53125 239.46875 L 269.949219 239.46875 L 269.949219 238.171875 C 269.742188 237.710938 269.53125 237.25 269.324219 236.78125 L 269.324219 239.46875 L 262.796875 239.46875 L 262.796875 231.695312 L 267.148438 231.695312 C 267.0625 231.488281 266.976562 231.285156 266.894531 231.074219 L 262.796875 231.074219 L 262.796875 223.296875 L 263.957031 223.296875 C 263.890625 223.09375 263.828125 222.882812 263.765625 222.675781 L 262.796875 222.675781 L 262.796875 219.132812 C 262.558594 218.148438 262.351562 217.210938 262.171875 216.308594 L 262.171875 222.675781 L 255.640625 222.675781 L 255.640625 214.902344 L 261.910156 214.902344 L 261.800781 214.277344 L 255.640625 214.277344 L 255.640625 206.503906 L 260.746094 206.503906 L 260.65625 205.882812 L 255.640625 205.882812 L 255.640625 198.257812 C 255.097656 197.964844 254.535156 197.699219 253.960938 197.464844 L 248.488281 197.464844 L 248.488281 196.074219 L 247.867188 195.960938 L 247.867188 197.464844 L 246.03125 197.464844 L 245.863281 198.089844 L 247.867188 198.089844 L 247.867188 205.882812 L 243.824219 205.882812 L 243.660156 206.503906 L 247.871094 206.503906 L 247.871094 214.277344 L 241.609375 214.277344 L 241.441406 214.902344 L 247.867188 214.902344 L 247.867188 222.675781 L 241.335938 222.675781 L 241.335938 215.300781 L 240.714844 217.65625 L 240.714844 222.632812 L 239.394531 222.632812 L 239.234375 223.253906 L 240.714844 223.253906 L 240.714844 227.191406 L 241.335938 228.726562 L 241.335938 223.296875 L 247.867188 223.296875 L 247.867188 231.074219 L 242.269531 231.074219 L 242.519531 231.695312 L 247.867188 231.695312 L 247.867188 239.46875 L 245.691406 239.46875 L 245.945312 240.09375 L 247.898438 240.09375 L 247.898438 244.925781 L 248.519531 246.460938 L 248.519531 240.09375 L 255.019531 240.09375 L 255.019531 247.867188 L 249.054688 247.867188 L 249.308594 248.488281 L 255.019531 248.488281 L 255.019531 256.265625 L 248.488281 256.265625 L 248.488281 254.113281 L 247.867188 254.328125 L 247.867188 256.265625 L 242.304688 256.265625 L 240.515625 256.886719 L 240.714844 256.886719 L 240.714844 264.660156 L 234.183594 264.660156 L 234.183594 259.0625 L 233.5625 259.28125 L 233.5625 264.628906 L 233.378906 264.628906 L 234.183594 266.96875 L 234.183594 265.253906 L 240.714844 265.253906 L 240.714844 275.824219 L 241.335938 275.824219 L 241.335938 265.253906 L 247.867188 265.253906 L 247.867188 275.746094 L 248.488281 275.746094 L 248.488281 265.265625 L 255.019531 265.265625 L 255.019531 275.546875 L 255.640625 275.546875 L 255.640625 265.265625 L 262.171875 265.265625 L 262.171875 275.214844 L 262.796875 275.167969 L 262.796875 265.265625 L 269.324219 265.265625 L 269.324219 273.796875 L 269.949219 273.5625 L 269.949219 265.265625 L 276.480469 265.265625 L 276.480469 269.171875 C 276.695312 268.914062 276.90625 268.660156 277.101562 268.398438 Z M 247.867188 264.667969 L 241.335938 264.667969 L 241.335938 256.886719 L 247.867188 256.886719 Z M 255.019531 264.667969 L 248.488281 264.667969 L 248.488281 256.886719 L 255.019531 256.886719 Z M 255.019531 239.476562 L 248.488281 239.476562 L 248.488281 231.699219 L 255.019531 231.699219 Z M 255.019531 231.078125 L 248.488281 231.078125 L 248.488281 223.296875 L 255.019531 223.296875 Z M 255.019531 222.683594 L 248.488281 222.683594 L 248.488281 214.90625 L 255.019531 214.90625 Z M 255.019531 214.285156 L 248.488281 214.285156 L 248.488281 206.503906 L 255.019531 206.503906 Z M 255.019531 205.886719 L 248.488281 205.886719 L 248.488281 198.113281 L 255.019531 198.113281 Z M 262.171875 264.667969 L 255.640625 264.667969 L 255.640625 256.886719 L 262.171875 256.886719 Z M 262.171875 256.269531 L 255.640625 256.269531 L 255.640625 248.496094 L 262.171875 248.496094 Z M 262.171875 247.871094 L 255.640625 247.871094 L 255.640625 240.09375 L 262.171875 240.09375 Z M 262.171875 239.476562 L 255.640625 239.476562 L 255.640625 231.699219 L 262.171875 231.699219 Z M 262.171875 231.078125 L 255.640625 231.078125 L 255.640625 223.296875 L 262.171875 223.296875 Z M 269.324219 264.667969 L 262.796875 264.667969 L 262.796875 256.886719 L 269.324219 256.886719 Z M 269.324219 256.269531 L 262.796875 256.269531 L 262.796875 248.496094 L 269.324219 248.496094 Z M 269.324219 247.871094 L 262.796875 247.871094 L 262.796875 240.09375 L 269.324219 240.09375 Z M 269.949219 264.667969 L 269.949219 256.886719 L 276.480469 256.886719 L 276.480469 264.660156 Z M 269.949219 264.667969 "/>
</g>
</defs>
<g id="surface1">
<path style=" stroke:none;fill-rule:nonzero;fill:rgb(78.431373%,78.431373%,78.431373%);fill-opacity:1;" d="M 249.855469 270.109375 C 259.808594 263.089844 267.960938 253.8125 273.644531 243.039062 C 309.195312 176.429688 301.164062 78.210938 232.695312 36.082031 C 201.050781 16.613281 155.5 4.292969 121.289062 24.289062 C 93.546875 40.503906 76.542969 71.039062 62.472656 98.816406 C 53.636719 116.3125 46.351562 135.09375 35.453125 151.4375 C 21.320312 172.636719 5.765625 200.949219 21.472656 225.582031 C 42.875 259.132812 83.296875 274.449219 119.953125 284.539062 C 159.722656 295.480469 204.445312 297.035156 241.179688 275.6875 C 244.152344 273.960938 247.046875 272.101562 249.855469 270.109375 Z M 249.855469 270.109375 "/>
<use xlink:href="#surface5" mask="url(#mask0)"/>
<use xlink:href="#surface14" mask="url(#mask1)"/>
<path style="fill-rule:nonzero;fill:rgb(14.901961%,19.607843%,21.960784%);fill-opacity:1;stroke-width:1;stroke-linecap:butt;stroke-linejoin:miter;stroke:rgb(14.901961%,19.607843%,21.960784%);stroke-opacity:1;stroke-miterlimit:10;" d="M 202.070312 40.621094 L 32.449219 40.621094 L 32.449219 191.605469 L 202.070312 191.605469 Z M 202.070312 40.621094 "/>
<path style="fill-rule:nonzero;fill:rgb(100%,100%,100%);fill-opacity:1;stroke-width:1;stroke-linecap:round;stroke-linejoin:round;stroke:rgb(14.901961%,19.607843%,21.960784%);stroke-opacity:1;stroke-miterlimit:4;" d="M 198.851562 36.945312 L 29.234375 36.945312 L 29.234375 187.929688 L 198.851562 187.929688 Z M 198.851562 36.945312 "/>
<path style="fill-rule:nonzero;fill:rgb(100%,100%,100%);fill-opacity:1;stroke-width:1;stroke-linecap:round;stroke-linejoin:round;stroke:rgb(14.901961%,19.607843%,21.960784%);stroke-opacity:1;stroke-miterlimit:4;" d="M 165.824219 97.878906 L 174.257812 97.878906 L 174.257812 89.445312 L 165.824219 89.445312 Z M 165.824219 97.878906 "/>
<path style="fill-rule:nonzero;fill:rgb(100%,100%,100%);fill-opacity:1;stroke-width:1;stroke-linecap:round;stroke-linejoin:round;stroke:rgb(14.901961%,19.607843%,21.960784%);stroke-opacity:1;stroke-miterlimit:4;" d="M 176.867188 97.878906 L 185.300781 97.878906 L 185.300781 89.445312 L 176.867188 89.445312 Z M 176.867188 97.878906 "/>
<path style="fill:none;stroke-width:1;stroke-linecap:round;stroke-linejoin:round;stroke:rgb(14.901961%,19.607843%,21.960784%);stroke-opacity:1;stroke-miterlimit:4;" d="M 162.453125 94.171875 L 119.605469 94.171875 "/>
<path style="fill-rule:nonzero;fill:rgb(100%,100%,100%);fill-opacity:1;stroke-width:1;stroke-linecap:round;stroke-linejoin:round;stroke:rgb(14.901961%,19.607843%,21.960784%);stroke-opacity:1;stroke-miterlimit:4;" d="M 165.824219 117.789062 L 174.257812 117.789062 L 174.257812 109.355469 L 165.824219 109.355469 Z M 165.824219 117.789062 "/>
<path style="fill-rule:nonzero;fill:rgb(100%,100%,100%);fill-opacity:1;stroke-width:1;stroke-linecap:round;stroke-linejoin:round;stroke:rgb(14.901961%,19.607843%,21.960784%);stroke-opacity:1;stroke-miterlimit:4;" d="M 176.867188 117.789062 L 185.300781 117.789062 L 185.300781 109.355469 L 176.867188 109.355469 Z M 176.867188 117.789062 "/>
<path style="fill:none;stroke-width:1;stroke-linecap:round;stroke-linejoin:round;stroke:rgb(14.901961%,19.607843%,21.960784%);stroke-opacity:1;stroke-miterlimit:4;" d="M 162.453125 114.074219 L 119.605469 114.074219 "/>
<path style="fill-rule:nonzero;fill:rgb(100%,100%,100%);fill-opacity:1;stroke-width:1;stroke-linecap:round;stroke-linejoin:round;stroke:rgb(14.901961%,19.607843%,21.960784%);stroke-opacity:1;stroke-miterlimit:4;" d="M 165.824219 137.699219 L 174.257812 137.699219 L 174.257812 129.265625 L 165.824219 129.265625 Z M 165.824219 137.699219 "/>
<path style="fill-rule:nonzero;fill:rgb(100%,100%,100%);fill-opacity:1;stroke-width:1;stroke-linecap:round;stroke-linejoin:round;stroke:rgb(14.901961%,19.607843%,21.960784%);stroke-opacity:1;stroke-miterlimit:4;" d="M 176.867188 137.699219 L 185.300781 137.699219 L 185.300781 129.265625 L 176.867188 129.265625 Z M 176.867188 137.699219 "/>
<path style="fill:none;stroke-width:1;stroke-linecap:round;stroke-linejoin:round;stroke:rgb(14.901961%,19.607843%,21.960784%);stroke-opacity:1;stroke-miterlimit:4;" d="M 162.453125 133.984375 L 119.605469 133.984375 "/>
<path style="fill-rule:nonzero;fill:rgb(100%,100%,100%);fill-opacity:1;stroke-width:1;stroke-linecap:round;stroke-linejoin:round;stroke:rgb(14.901961%,19.607843%,21.960784%);stroke-opacity:1;stroke-miterlimit:4;" d="M 85.1875 97.878906 L 93.625 97.878906 L 93.625 89.445312 L 85.1875 89.445312 Z M 85.1875 97.878906 "/>
<path style="fill-rule:nonzero;fill:rgb(100%,100%,100%);fill-opacity:1;stroke-width:1;stroke-linecap:round;stroke-linejoin:round;stroke:rgb(14.901961%,19.607843%,21.960784%);stroke-opacity:1;stroke-miterlimit:4;" d="M 96.234375 97.878906 L 104.671875 97.878906 L 104.671875 89.445312 L 96.234375 89.445312 Z M 96.234375 97.878906 "/>
<path style="fill:none;stroke-width:1;stroke-linecap:round;stroke-linejoin:round;stroke:rgb(14.901961%,19.607843%,21.960784%);stroke-opacity:1;stroke-miterlimit:4;" d="M 81.816406 94.171875 L 38.96875 94.171875 "/>
<path style="fill-rule:nonzero;fill:rgb(100%,100%,100%);fill-opacity:1;stroke-width:1;stroke-linecap:round;stroke-linejoin:round;stroke:rgb(14.901961%,19.607843%,21.960784%);stroke-opacity:1;stroke-miterlimit:4;" d="M 85.1875 117.789062 L 93.625 117.789062 L 93.625 109.355469 L 85.1875 109.355469 Z M 85.1875 117.789062 "/>
<path style="fill-rule:nonzero;fill:rgb(100%,100%,100%);fill-opacity:1;stroke-width:1;stroke-linecap:round;stroke-linejoin:round;stroke:rgb(14.901961%,19.607843%,21.960784%);stroke-opacity:1;stroke-miterlimit:4;" d="M 96.234375 117.789062 L 104.671875 117.789062 L 104.671875 109.355469 L 96.234375 109.355469 Z M 96.234375 117.789062 "/>
<path style="fill:none;stroke-width:1;stroke-linecap:round;stroke-linejoin:round;stroke:rgb(14.901961%,19.607843%,21.960784%);stroke-opacity:1;stroke-miterlimit:4;" d="M 81.816406 114.074219 L 38.96875 114.074219 "/>
<path style="fill-rule:nonzero;fill:rgb(100%,100%,100%);fill-opacity:1;stroke-width:1;stroke-linecap:round;stroke-linejoin:round;stroke:rgb(14.901961%,19.607843%,21.960784%);stroke-opacity:1;stroke-miterlimit:4;" d="M 85.1875 137.699219 L 93.625 137.699219 L 93.625 129.265625 L 85.1875 129.265625 Z M 85.1875 137.699219 "/>
<path style="fill-rule:nonzero;fill:rgb(100%,100%,100%);fill-opacity:1;stroke-width:1;stroke-linecap:round;stroke-linejoin:round;stroke:rgb(14.901961%,19.607843%,21.960784%);stroke-opacity:1;stroke-miterlimit:4;" d="M 96.234375 137.699219 L 104.671875 137.699219 L 104.671875 129.265625 L 96.234375 129.265625 Z M 96.234375 137.699219 "/>
<path style="fill:none;stroke-width:1;stroke-linecap:round;stroke-linejoin:round;stroke:rgb(14.901961%,19.607843%,21.960784%);stroke-opacity:1;stroke-miterlimit:4;" d="M 81.816406 133.984375 L 38.96875 133.984375 "/>
<path style="fill-rule:nonzero;fill:rgb(100%,100%,100%);fill-opacity:1;stroke-width:1;stroke-linecap:round;stroke-linejoin:round;stroke:rgb(14.901961%,19.607843%,21.960784%);stroke-opacity:1;stroke-miterlimit:4;" d="M 50.921875 166.695312 L 41.628906 166.695312 L 41.628906 175.988281 L 50.921875 175.988281 Z M 50.921875 166.695312 "/>
<path style="fill-rule:nonzero;fill:rgb(100%,100%,100%);fill-opacity:1;stroke-width:1;stroke-linecap:round;stroke-linejoin:round;stroke:rgb(14.901961%,19.607843%,21.960784%);stroke-opacity:1;stroke-miterlimit:4;" d="M 88.847656 166.695312 L 79.554688 166.695312 L 79.554688 175.988281 L 88.847656 175.988281 Z M 88.847656 166.695312 "/>
<path style="fill-rule:nonzero;fill:rgb(100%,100%,100%);fill-opacity:1;stroke-width:1;stroke-linecap:round;stroke-linejoin:round;stroke:rgb(14.901961%,19.607843%,21.960784%);stroke-opacity:1;stroke-miterlimit:4;" d="M 128.273438 166.695312 L 118.980469 166.695312 L 118.980469 175.988281 L 128.273438 175.988281 Z M 128.273438 166.695312 "/>
<path style="fill:none;stroke-width:2;stroke-linecap:round;stroke-linejoin:round;stroke:rgb(14.901961%,19.607843%,21.960784%);stroke-opacity:1;stroke-miterlimit:4;" d="M 99.003906 92.265625 L 100.441406 95.152344 L 107.398438 88.429688 "/>
<path style="fill:none;stroke-width:2;stroke-linecap:round;stroke-linejoin:round;stroke:rgb(14.901961%,19.607843%,21.960784%);stroke-opacity:1;stroke-miterlimit:4;" d="M 99.003906 111.953125 L 100.441406 114.835938 L 107.398438 108.109375 "/>
<path style="fill:none;stroke-width:2;stroke-linecap:round;stroke-linejoin:round;stroke:rgb(14.901961%,19.607843%,21.960784%);stroke-opacity:1;stroke-miterlimit:4;" d="M 87 132.597656 L 88.441406 135.476562 L 95.402344 128.753906 "/>
<path style="fill:none;stroke-width:2;stroke-linecap:round;stroke-linejoin:round;stroke:rgb(14.901961%,19.607843%,21.960784%);stroke-opacity:1;stroke-miterlimit:4;" d="M 179.171875 92.03125 L 180.609375 94.910156 L 187.570312 88.1875 "/>
<path style="fill:none;stroke-width:2;stroke-linecap:round;stroke-linejoin:round;stroke:rgb(14.901961%,19.607843%,21.960784%);stroke-opacity:1;stroke-miterlimit:4;" d="M 167.554688 112.191406 L 168.992188 115.070312 L 175.949219 108.351562 "/>
<path style="fill:none;stroke-width:2;stroke-linecap:round;stroke-linejoin:round;stroke:rgb(14.901961%,19.607843%,21.960784%);stroke-opacity:1;stroke-miterlimit:4;" d="M 167.554688 132.417969 L 168.992188 135.296875 L 175.949219 128.578125 "/>
<path style="fill-rule:nonzero;fill:rgb(100%,100%,100%);fill-opacity:1;stroke-width:1;stroke-linecap:round;stroke-linejoin:round;stroke:rgb(14.901961%,19.607843%,21.960784%);stroke-opacity:1;stroke-miterlimit:4;" d="M 198.851562 36.945312 L 29.234375 36.945312 L 29.234375 60.53125 L 198.851562 60.53125 Z M 198.851562 36.945312 "/>
<path style="fill-rule:nonzero;fill:rgb(85.882353%,85.882353%,85.882353%);fill-opacity:1;stroke-width:1;stroke-linecap:round;stroke-linejoin:round;stroke:rgb(14.901961%,19.607843%,21.960784%);stroke-opacity:1;stroke-miterlimit:4;" d="M 198.851562 36.945312 L 192.464844 36.945312 L 192.464844 187.929688 L 198.851562 187.929688 Z M 198.851562 36.945312 "/>
<path style="fill-rule:nonzero;fill:rgb(58.039216%,58.039216%,58.039216%);fill-opacity:1;stroke-width:1;stroke-linecap:round;stroke-linejoin:round;stroke:rgb(14.901961%,19.607843%,21.960784%);stroke-opacity:1;stroke-miterlimit:4;" d="M 198.851562 59.636719 L 192.464844 59.636719 L 192.464844 88.777344 L 198.851562 88.777344 Z M 198.851562 59.636719 "/>
<path style="fill-rule:nonzero;fill:rgb(85.882353%,85.882353%,85.882353%);fill-opacity:1;stroke-width:1;stroke-linecap:round;stroke-linejoin:round;stroke:rgb(14.901961%,19.607843%,21.960784%);stroke-opacity:1;stroke-miterlimit:4;" d="M 198.851562 36.945312 L 29.234375 36.945312 L 29.234375 48.417969 L 198.851562 48.417969 Z M 198.851562 36.945312 "/>
<path style="fill-rule:nonzero;fill:rgb(100%,100%,100%);fill-opacity:1;stroke-width:1;stroke-linecap:round;stroke-linejoin:round;stroke:rgb(14.901961%,19.607843%,21.960784%);stroke-opacity:1;stroke-miterlimit:4;" d="M 104.726562 40.285156 L 37.835938 40.285156 L 37.835938 45.0625 L 104.726562 45.0625 Z M 104.726562 40.285156 "/>
<path style="fill:none;stroke-width:1;stroke-linecap:round;stroke-linejoin:round;stroke:rgb(14.901961%,19.607843%,21.960784%);stroke-opacity:1;stroke-miterlimit:4;" d="M 188.839844 40.511719 L 194.710938 40.511719 "/>
<path style="fill:none;stroke-width:1;stroke-linecap:round;stroke-linejoin:round;stroke:rgb(14.901961%,19.607843%,21.960784%);stroke-opacity:1;stroke-miterlimit:4;" d="M 188.839844 42.992188 L 194.710938 42.992188 "/>
<path style="fill:none;stroke-width:1;stroke-linecap:round;stroke-linejoin:round;stroke:rgb(14.901961%,19.607843%,21.960784%);stroke-opacity:1;stroke-miterlimit:4;" d="M 188.839844 45.480469 L 194.710938 45.480469 "/>
<path style=" stroke:none;fill-rule:nonzero;fill:rgb(14.901961%,19.607843%,21.960784%);fill-opacity:1;" d="M 88.484375 70.074219 C 88.484375 68.601562 89.261719 67.761719 90.679688 67.761719 C 92.101562 67.761719 92.871094 68.601562 92.871094 70.074219 L 92.871094 74.851562 C 92.871094 76.320312 92.101562 77.160156 90.679688 77.160156 C 89.261719 77.160156 88.484375 76.320312 88.484375 74.851562 Z M 89.933594 74.945312 C 89.933594 75.597656 90.222656 75.847656 90.679688 75.847656 C 91.140625 75.847656 91.429688 75.597656 91.429688 74.945312 L 91.429688 69.96875 C 91.429688 69.308594 91.140625 69.0625 90.679688 69.0625 C 90.222656 69.0625 89.933594 69.308594 89.933594 69.96875 Z M 89.933594 74.945312 "/>
<path style=" stroke:none;fill-rule:nonzero;fill:rgb(14.901961%,19.607843%,21.960784%);fill-opacity:1;" d="M 95.089844 70.402344 L 95.089844 77.054688 L 93.789062 77.054688 L 93.789062 67.867188 L 95.601562 67.867188 L 97.085938 73.363281 L 97.085938 67.867188 L 98.375 67.867188 L 98.375 77.054688 L 96.886719 77.054688 Z M 95.089844 70.402344 "/>
<path style=" stroke:none;fill-rule:nonzero;fill:rgb(14.901961%,19.607843%,21.960784%);fill-opacity:1;" d="M 99.40625 67.867188 L 100.855469 67.867188 L 100.855469 75.742188 L 103.253906 75.742188 L 103.253906 77.054688 L 99.425781 77.054688 Z M 99.40625 67.867188 "/>
<path style=" stroke:none;fill-rule:nonzero;fill:rgb(14.901961%,19.607843%,21.960784%);fill-opacity:1;" d="M 103.875 67.867188 L 105.316406 67.867188 L 105.316406 77.054688 L 103.875 77.054688 Z M 103.875 67.867188 "/>
<path style=" stroke:none;fill-rule:nonzero;fill:rgb(14.901961%,19.607843%,21.960784%);fill-opacity:1;" d="M 107.644531 70.402344 L 107.644531 77.054688 L 106.363281 77.054688 L 106.363281 67.867188 L 108.171875 67.867188 L 109.65625 73.363281 L 109.65625 67.867188 L 110.941406 67.867188 L 110.941406 77.054688 L 109.472656 77.054688 Z M 107.644531 70.402344 "/>
<path style=" stroke:none;fill-rule:nonzero;fill:rgb(14.901961%,19.607843%,21.960784%);fill-opacity:1;" d="M 113.402344 71.742188 L 115.386719 71.742188 L 115.386719 73.054688 L 113.402344 73.054688 L 113.402344 75.742188 L 115.890625 75.742188 L 115.890625 77.054688 L 111.960938 77.054688 L 111.960938 67.867188 L 115.898438 67.867188 L 115.898438 69.179688 L 113.410156 69.179688 Z M 113.402344 71.742188 "/>
<path style=" stroke:none;fill-rule:nonzero;fill:rgb(14.901961%,19.607843%,21.960784%);fill-opacity:1;" d="M 118.410156 67.867188 L 122.871094 67.867188 L 122.871094 69.179688 L 121.359375 69.179688 L 121.359375 77.054688 L 119.914062 77.054688 L 119.914062 69.179688 L 118.410156 69.179688 Z M 118.410156 67.867188 "/>
<path style=" stroke:none;fill-rule:nonzero;fill:rgb(14.901961%,19.607843%,21.960784%);fill-opacity:1;" d="M 124.945312 71.742188 L 126.925781 71.742188 L 126.925781 73.054688 L 124.945312 73.054688 L 124.945312 75.742188 L 127.433594 75.742188 L 127.433594 77.054688 L 123.496094 77.054688 L 123.496094 67.867188 L 127.433594 67.867188 L 127.433594 69.179688 L 124.945312 69.179688 Z M 124.945312 71.742188 "/>
<path style=" stroke:none;fill-rule:nonzero;fill:rgb(14.901961%,19.607843%,21.960784%);fill-opacity:1;" d="M 130.273438 67.761719 C 131.675781 67.761719 132.398438 68.601562 132.398438 70.074219 L 132.398438 70.359375 L 131.035156 70.359375 L 131.035156 69.980469 C 131.035156 69.320312 130.773438 69.074219 130.316406 69.074219 C 129.855469 69.074219 129.59375 69.320312 129.59375 69.980469 C 129.59375 71.847656 132.410156 72.226562 132.410156 74.851562 C 132.410156 76.320312 131.675781 77.160156 130.257812 77.160156 C 128.839844 77.160156 128.132812 76.320312 128.132812 74.851562 L 128.132812 74.285156 L 129.5 74.285156 L 129.5 74.945312 C 129.5 75.597656 129.785156 75.835938 130.246094 75.835938 C 130.707031 75.835938 130.992188 75.597656 130.992188 74.945312 C 130.992188 73.078125 128.175781 72.699219 128.175781 70.074219 C 128.132812 68.601562 128.871094 67.761719 130.273438 67.761719 Z M 130.273438 67.761719 "/>
<path style=" stroke:none;fill-rule:nonzero;fill:rgb(14.901961%,19.607843%,21.960784%);fill-opacity:1;" d="M 132.820312 67.867188 L 137.28125 67.867188 L 137.28125 69.179688 L 135.777344 69.179688 L 135.777344 77.054688 L 134.351562 77.054688 L 134.351562 69.179688 L 132.839844 69.179688 Z M 132.820312 67.867188 "/>
<path style=" stroke:none;fill-rule:nonzero;fill:rgb(14.901961%,19.607843%,21.960784%);fill-opacity:1;" d="M 48.863281 164.457031 L 47.402344 164.457031 L 47.152344 162.789062 L 45.40625 162.789062 L 45.15625 164.457031 L 43.808594 164.457031 L 45.273438 155.269531 L 47.390625 155.269531 Z M 45.566406 161.539062 L 46.960938 161.539062 L 46.265625 156.894531 Z M 45.566406 161.539062 "/>
<path style=" stroke:none;fill-rule:nonzero;fill:rgb(14.901961%,19.607843%,21.960784%);fill-opacity:1;" d="M 86.179688 157.367188 L 86.179688 157.6875 C 86.179688 158.636719 85.890625 159.238281 85.246094 159.554688 C 86.023438 159.855469 86.320312 160.550781 86.320312 161.519531 L 86.320312 162.273438 C 86.320312 163.691406 85.574219 164.449219 84.132812 164.449219 L 81.859375 164.449219 L 81.859375 155.269531 L 84.039062 155.269531 C 85.539062 155.269531 86.179688 155.964844 86.179688 157.367188 Z M 83.304688 156.5625 L 83.304688 158.988281 L 83.871094 158.988281 C 84.40625 158.988281 84.734375 158.753906 84.734375 158.019531 L 84.734375 157.507812 C 84.734375 156.851562 84.511719 156.5625 84 156.5625 Z M 83.304688 160.296875 L 83.304688 163.117188 L 84.132812 163.117188 C 84.617188 163.117188 84.878906 162.894531 84.878906 162.210938 L 84.878906 161.414062 C 84.878906 160.558594 84.605469 160.296875 83.953125 160.296875 Z M 83.304688 160.296875 "/>
<path style=" stroke:none;fill-rule:nonzero;fill:rgb(14.901961%,19.607843%,21.960784%);fill-opacity:1;" d="M 125.980469 161.03125 L 125.980469 162.273438 C 125.980469 163.746094 125.246094 164.585938 123.828125 164.585938 C 122.410156 164.585938 121.675781 163.746094 121.675781 162.273438 L 121.675781 157.496094 C 121.675781 156.027344 122.410156 155.1875 123.828125 155.1875 C 125.246094 155.1875 125.980469 156.027344 125.980469 157.496094 L 125.980469 158.390625 L 124.617188 158.390625 L 124.617188 157.367188 C 124.617188 156.707031 124.324219 156.457031 123.863281 156.457031 C 123.402344 156.457031 123.117188 156.707031 123.117188 157.367188 L 123.117188 162.34375 C 123.117188 163 123.410156 163.238281 123.863281 163.238281 C 124.320312 163.238281 124.617188 163 124.617188 162.34375 L 124.617188 161.03125 Z M 125.980469 161.03125 "/>
<path style="fill:none;stroke-width:1;stroke-linecap:round;stroke-linejoin:round;stroke:rgb(14.901961%,19.607843%,21.960784%);stroke-opacity:1;stroke-miterlimit:4;" d="M 39.621094 150.375 L 149.871094 150.375 "/>
<use xlink:href="#surface17" mask="url(#mask4)"/>
<use xlink:href="#surface20" mask="url(#mask5)"/>
<use xlink:href="#surface23" mask="url(#mask6)"/>
<use xlink:href="#surface26" mask="url(#mask7)"/>
<use xlink:href="#surface29" mask="url(#mask8)"/>
<use xlink:href="#surface32" mask="url(#mask9)"/>
<use xlink:href="#surface35" mask="url(#mask10)"/>
<use xlink:href="#surface38" mask="url(#mask11)"/>
<use xlink:href="#surface41" mask="url(#mask12)"/>
<use xlink:href="#surface50" mask="url(#mask13)"/>
<use xlink:href="#surface71" mask="url(#mask16)"/>
<path style="fill:none;stroke-width:1;stroke-linecap:butt;stroke-linejoin:miter;stroke:rgb(14.901961%,19.607843%,21.960784%);stroke-opacity:1;stroke-miterlimit:10;" d="M 50.035156 280.246094 L 31.304688 280.246094 "/>
<path style="fill:none;stroke-width:1;stroke-linecap:butt;stroke-linejoin:miter;stroke:rgb(14.901961%,19.607843%,21.960784%);stroke-opacity:1;stroke-miterlimit:10;" d="M 294.410156 280.246094 L 56.136719 280.246094 "/>
<path style="fill-rule:nonzero;fill:rgb(61.960784%,61.960784%,61.960784%);fill-opacity:1;stroke-width:1;stroke-linecap:butt;stroke-linejoin:miter;stroke:rgb(14.901961%,19.607843%,21.960784%);stroke-opacity:1;stroke-miterlimit:10;" d="M 222.453125 280.035156 L 226.457031 219.203125 L 229.40625 190.28125 L 221.320312 181.257812 L 217.265625 178.308594 C 217.265625 178.308594 211.554688 183.285156 207.503906 184.386719 C 203.457031 185.488281 199.5625 186.601562 199.5625 186.601562 C 199.5625 186.601562 185.746094 212.574219 184.632812 224.363281 C 183.519531 236.148438 181.6875 279.8125 181.6875 279.8125 L 183.222656 280.035156 Z M 222.453125 280.035156 "/>
<path style="fill:none;stroke-width:1;stroke-linecap:butt;stroke-linejoin:miter;stroke:rgb(14.901961%,19.607843%,21.960784%);stroke-opacity:1;stroke-miterlimit:10;" d="M 203.464844 229.886719 C 203.464844 229.886719 202.773438 229.53125 204.152344 225.972656 "/>
<path style="fill-rule:nonzero;fill:rgb(14.901961%,19.607843%,21.960784%);fill-opacity:1;stroke-width:1;stroke-linecap:butt;stroke-linejoin:miter;stroke:rgb(14.901961%,19.607843%,21.960784%);stroke-opacity:1;stroke-miterlimit:10;" d="M 201.839844 185.976562 C 202.527344 190.894531 202.90625 195.84375 202.976562 200.808594 C 202.976562 200.808594 207.125 199.144531 210.441406 193.34375 C 212.273438 190.226562 213.847656 186.972656 215.15625 183.601562 Z M 201.839844 185.976562 "/>
<path style="fill-rule:nonzero;fill:rgb(100%,100%,100%);fill-opacity:1;stroke-width:1;stroke-linecap:butt;stroke-linejoin:miter;stroke:rgb(14.901961%,19.607843%,21.960784%);stroke-opacity:1;stroke-miterlimit:10;" d="M 222.453125 280.035156 L 226.054688 225.34375 C 222.519531 227.148438 215.546875 230.128906 207.855469 230.257812 C 198.636719 230.414062 187.222656 223.253906 187.222656 223.253906 L 184.652344 224.261719 C 184.652344 224.292969 184.652344 224.328125 184.652344 224.363281 C 183.546875 236.179688 181.703125 279.8125 181.703125 279.8125 L 183.242188 280.035156 Z M 222.453125 280.035156 "/>
<path style=" stroke:none;fill-rule:nonzero;fill:rgb(100%,100%,100%);fill-opacity:1;" d="M 216.457031 249.421875 C 216.457031 263.511719 216.941406 277.0625 217.078125 280.023438 L 244.226562 280.023438 C 244.601562 275.632812 246.941406 248.300781 248.140625 238.507812 C 249.453125 227.800781 258.0625 211.867188 258.0625 206.160156 C 258.0625 200.457031 259.808594 201.359375 251.945312 197.210938 C 244.085938 193.0625 226.742188 184.105469 224.34375 183.011719 C 221.941406 181.914062 219.316406 179.277344 219.316406 179.277344 C 219.316406 179.277344 220.1875 184.738281 219.9375 199.585938 C 219.691406 214.433594 216.457031 233.492188 216.457031 249.421875 Z M 216.457031 249.421875 "/>
<use xlink:href="#surface80" mask="url(#mask23)"/>
<path style="fill:none;stroke-width:1;stroke-linecap:butt;stroke-linejoin:miter;stroke:rgb(14.901961%,19.607843%,21.960784%);stroke-opacity:1;stroke-miterlimit:10;" d="M 216.457031 249.421875 C 216.457031 263.511719 216.941406 277.0625 217.078125 280.023438 L 244.226562 280.023438 C 244.601562 275.632812 246.941406 248.300781 248.140625 238.507812 C 249.453125 227.800781 258.0625 211.867188 258.0625 206.160156 C 258.0625 200.457031 259.808594 201.359375 251.945312 197.210938 C 244.085938 193.0625 226.742188 184.105469 224.34375 183.011719 C 221.941406 181.914062 219.316406 179.277344 219.316406 179.277344 C 219.316406 179.277344 220.1875 184.738281 219.9375 199.585938 C 219.691406 214.433594 216.457031 233.492188 216.457031 249.421875 Z M 216.457031 249.421875 "/>
<path style="fill-rule:nonzero;fill:rgb(14.901961%,19.607843%,21.960784%);fill-opacity:1;stroke-width:1;stroke-linecap:butt;stroke-linejoin:miter;stroke:rgb(14.901961%,19.607843%,21.960784%);stroke-opacity:1;stroke-miterlimit:10;" d="M 219.316406 179.335938 C 219.316406 179.335938 220.1875 184.796875 219.9375 199.644531 C 219.890625 203.375 219.636719 207.40625 219.316406 211.5625 C 220.0625 210.535156 222.472656 207.257812 223.050781 207.070312 C 223.703125 206.851562 227.199219 210.128906 230.035156 210.566406 C 232.871094 211 233.964844 211 230.910156 207.722656 C 227.855469 204.445312 226.558594 194.839844 225.449219 187.632812 C 225.238281 186.089844 224.898438 184.566406 224.4375 183.078125 L 224.363281 183.078125 C 221.9375 181.960938 219.316406 179.335938 219.316406 179.335938 Z M 219.316406 179.335938 "/>
<path style="fill:none;stroke-width:1;stroke-linecap:butt;stroke-linejoin:miter;stroke:rgb(14.901961%,19.607843%,21.960784%);stroke-opacity:1;stroke-miterlimit:10;" d="M 237.238281 246.882812 C 239.246094 245.96875 240.824219 245.179688 240.824219 245.179688 L 241.566406 250.890625 C 241.566406 250.890625 230.695312 255.679688 224.617188 256.046875 C 218.539062 256.414062 217.984375 256.601562 217.984375 256.601562 L 218.167969 251.074219 "/>
<path style="fill:none;stroke-width:1;stroke-linecap:butt;stroke-linejoin:miter;stroke:rgb(14.901961%,19.607843%,21.960784%);stroke-opacity:1;stroke-miterlimit:10;" d="M 231.792969 249.117188 C 232.90625 248.742188 234.214844 248.214844 235.488281 247.660156 "/>
<path style="fill:none;stroke-width:1;stroke-linecap:butt;stroke-linejoin:miter;stroke:rgb(14.901961%,19.607843%,21.960784%);stroke-opacity:1;stroke-miterlimit:10;" d="M 220.1875 250.523438 C 223.367188 250.441406 226.539062 250.152344 229.679688 249.65625 "/>
<path style="fill:none;stroke-width:1;stroke-linecap:butt;stroke-linejoin:miter;stroke:rgb(14.901961%,19.607843%,21.960784%);stroke-opacity:1;stroke-miterlimit:10;" d="M 241.566406 250.890625 L 241.933594 255.3125 "/>
<path style=" stroke:none;fill-rule:nonzero;fill:rgb(100%,100%,100%);fill-opacity:1;" d="M 158.230469 280.035156 L 188.78125 280.035156 C 188.851562 277.640625 189.734375 247.207031 190.332031 231.675781 C 190.953125 215.503906 201.925781 190.972656 201.925781 190.972656 C 201.925781 190.972656 203.394531 187.515625 201.839844 185.960938 C 200.285156 184.402344 196.550781 185.027344 193.753906 187.203125 C 190.953125 189.378906 165.140625 200.574219 163.585938 202.132812 C 162.03125 203.6875 162.34375 208.972656 161.71875 215.191406 C 161.097656 221.414062 150.835938 264.332031 150.835938 264.332031 C 150.835938 264.332031 148.035156 264.953125 147.101562 265.574219 C 146.171875 266.195312 146.171875 268.0625 146.171875 268.0625 C 146.171875 268.0625 147.414062 268.375 151.144531 270.238281 C 154.578125 271.957031 157.746094 278.921875 158.230469 280.035156 Z M 158.230469 280.035156 "/>
<use xlink:href="#surface83" mask="url(#mask26)"/>
<path style="fill:none;stroke-width:1;stroke-linecap:butt;stroke-linejoin:miter;stroke:rgb(14.901961%,19.607843%,21.960784%);stroke-opacity:1;stroke-miterlimit:10;" d="M 158.230469 280.035156 L 188.78125 280.035156 C 188.851562 277.640625 189.734375 247.207031 190.332031 231.675781 C 190.953125 215.503906 201.925781 190.972656 201.925781 190.972656 C 201.925781 190.972656 203.394531 187.515625 201.839844 185.960938 C 200.285156 184.402344 196.550781 185.027344 193.753906 187.203125 C 190.953125 189.378906 165.140625 200.574219 163.585938 202.132812 C 162.03125 203.6875 162.34375 208.972656 161.71875 215.191406 C 161.097656 221.414062 150.835938 264.332031 150.835938 264.332031 C 150.835938 264.332031 148.035156 264.953125 147.101562 265.574219 C 146.171875 266.195312 146.171875 268.0625 146.171875 268.0625 C 146.171875 268.0625 147.414062 268.375 151.144531 270.238281 C 154.578125 271.957031 157.746094 278.921875 158.230469 280.035156 Z M 158.230469 280.035156 "/>
<path style="fill-rule:nonzero;fill:rgb(14.901961%,19.607843%,21.960784%);fill-opacity:1;stroke-width:1;stroke-linecap:butt;stroke-linejoin:miter;stroke:rgb(14.901961%,19.607843%,21.960784%);stroke-opacity:1;stroke-miterlimit:10;" d="M 146.171875 268.082031 C 146.171875 268.082031 147.414062 268.394531 151.144531 270.257812 C 154.878906 272.125 158.300781 280.210938 158.300781 280.210938 L 164.324219 280.210938 C 164.707031 279.078125 165.632812 274.960938 161.410156 269.949219 C 156.433594 264.039062 150.835938 264.351562 150.835938 264.351562 C 150.835938 264.351562 148.035156 264.972656 147.101562 265.59375 C 146.171875 266.214844 146.171875 268.082031 146.171875 268.082031 Z M 146.171875 268.082031 "/>
<path style="fill-rule:nonzero;fill:rgb(14.901961%,19.607843%,21.960784%);fill-opacity:1;stroke-width:1;stroke-linecap:butt;stroke-linejoin:miter;stroke:rgb(14.901961%,19.607843%,21.960784%);stroke-opacity:1;stroke-miterlimit:10;" d="M 198.082031 185.21875 C 196.746094 188.757812 193.578125 196.761719 190.953125 200.574219 C 187.53125 205.550781 181.3125 209.59375 183.488281 211.460938 C 185.667969 213.328125 191.886719 207.417969 191.886719 207.417969 C 191.886719 207.417969 193.441406 211.773438 193.753906 213.015625 C 193.769531 213.074219 193.796875 213.125 193.835938 213.171875 C 196.078125 205.617188 198.777344 198.203125 201.921875 190.972656 C 201.921875 190.972656 203.386719 187.515625 201.832031 185.960938 C 201.03125 185.152344 199.660156 184.9375 198.082031 185.21875 Z M 198.082031 185.21875 "/>
<path style="fill:none;stroke-width:1;stroke-linecap:butt;stroke-linejoin:miter;stroke:rgb(14.901961%,19.607843%,21.960784%);stroke-opacity:1;stroke-miterlimit:10;" d="M 175.367188 215.242188 C 175.546875 214.09375 175.660156 212.933594 175.714844 211.773438 "/>
<path style="fill:none;stroke-width:1;stroke-linecap:butt;stroke-linejoin:miter;stroke:rgb(14.901961%,19.607843%,21.960784%);stroke-opacity:1;stroke-miterlimit:10;" d="M 170.429688 280.8125 C 170.429688 280.8125 171.359375 260.910156 171.359375 249.402344 C 171.359375 241.113281 173.617188 227.167969 174.886719 218.628906 "/>
<path style="fill:none;stroke-width:1;stroke-linecap:butt;stroke-linejoin:miter;stroke:rgb(14.901961%,19.607843%,21.960784%);stroke-opacity:1;stroke-miterlimit:10;" d="M 171.984375 245.066406 C 171.984375 245.066406 176.960938 246.621094 179.445312 246.933594 L 186.910156 247.867188 L 186.34375 254.914062 C 186.34375 254.914062 185.976562 254.710938 180.378906 252.84375 C 174.78125 250.976562 171.359375 249.421875 171.359375 249.421875 "/>
<path style="fill:none;stroke-width:1;stroke-linecap:butt;stroke-linejoin:miter;stroke:rgb(14.901961%,19.607843%,21.960784%);stroke-opacity:1;stroke-miterlimit:10;" d="M 186.34375 254.894531 C 186.34375 254.894531 185.976562 268.703125 185.976562 270.570312 C 185.976562 272.4375 180.378906 271.191406 180.378906 271.191406 "/>
<path style="fill-rule:nonzero;fill:rgb(61.960784%,61.960784%,61.960784%);fill-opacity:1;stroke-width:1;stroke-linecap:butt;stroke-linejoin:miter;stroke:rgb(14.901961%,19.607843%,21.960784%);stroke-opacity:1;stroke-miterlimit:10;" d="M 190.8125 178.652344 C 190.8125 178.652344 196.675781 187.085938 201.925781 190.972656 C 207.175781 194.859375 211.652344 189.417969 215.15625 183.582031 C 218.65625 177.75 220.988281 173.46875 222.738281 168.414062 C 224.484375 163.355469 222.738281 154.996094 215.742188 148.382812 C 208.742188 141.773438 192.398438 132.042969 188.316406 137.101562 C 184.234375 142.15625 180.34375 153.273438 183.0625 162.769531 C 184.683594 168.480469 187.308594 173.859375 190.8125 178.652344 Z M 190.8125 178.652344 "/>
<path style="fill:none;stroke-width:2;stroke-linecap:round;stroke-linejoin:miter;stroke:rgb(14.901961%,19.607843%,21.960784%);stroke-opacity:1;stroke-miterlimit:10;" d="M 188.34375 160.507812 C 190.554688 159.84375 192.914062 159.84375 195.128906 160.507812 "/>
<path style=" stroke:none;fill-rule:nonzero;fill:rgb(14.901961%,19.607843%,21.960784%);fill-opacity:1;" d="M 193.359375 165.714844 C 193.546875 166.722656 193.3125 167.609375 192.832031 167.695312 C 192.351562 167.785156 191.824219 167.039062 191.636719 166.023438 C 191.449219 165.011719 191.6875 164.128906 192.167969 164.039062 C 192.644531 163.953125 193.175781 164.699219 193.359375 165.714844 Z M 193.359375 165.714844 "/>
<path style=" stroke:none;fill-rule:nonzero;fill:rgb(14.901961%,19.607843%,21.960784%);fill-opacity:1;" d="M 210.664062 165.980469 C 210.847656 166.988281 210.609375 167.847656 210.136719 167.964844 C 209.664062 168.082031 209.128906 167.304688 208.941406 166.292969 C 208.757812 165.277344 208.992188 164.394531 209.472656 164.308594 C 209.949219 164.21875 210.480469 164.96875 210.664062 165.980469 Z M 210.664062 165.980469 "/>
<path style="fill:none;stroke-width:1;stroke-linecap:butt;stroke-linejoin:miter;stroke:rgb(14.901961%,19.607843%,21.960784%);stroke-opacity:1;stroke-miterlimit:10;" d="M 197.847656 179.695312 C 200.09375 180.46875 202.46875 180.800781 204.84375 180.664062 C 208.929688 180.472656 212.433594 177.554688 212.433594 177.554688 "/>
<path style="fill-rule:nonzero;fill:rgb(14.901961%,19.607843%,21.960784%);fill-opacity:1;stroke-width:1;stroke-linecap:butt;stroke-linejoin:miter;stroke:rgb(14.901961%,19.607843%,21.960784%);stroke-opacity:1;stroke-miterlimit:10;" d="M 188.921875 141.398438 C 188.921875 141.398438 197.558594 161.105469 198.640625 161.644531 C 199.722656 162.1875 201.882812 155.703125 201.882812 155.703125 C 201.882812 155.703125 204.851562 161.097656 208.371094 162.722656 C 211.890625 164.34375 212.960938 161.644531 212.960938 161.644531 C 214.722656 162.640625 216.4375 163.71875 218.09375 164.886719 L 219.441406 165.960938 L 220.789062 170.820312 C 220.789062 170.820312 216.742188 184.050781 218.09375 185.671875 C 219.441406 187.296875 227 185.132812 227 185.132812 C 227 185.132812 225.132812 187.832031 227.539062 187.832031 C 229.945312 187.832031 234.289062 188.371094 240.496094 180 C 246.703125 171.628906 247.246094 158.136719 247.246094 158.136719 C 247.246094 158.136719 250.210938 161.371094 250.484375 157.320312 C 250.757812 153.273438 246.976562 146.523438 246.976562 146.523438 C 246.976562 146.523438 252.910156 152.464844 252.378906 146.257812 C 251.84375 140.050781 248.328125 133.027344 246.976562 131.410156 C 245.628906 129.792969 237.523438 125.191406 237.523438 125.191406 C 237.523438 125.191406 240.765625 124.648438 238.339844 120.867188 C 235.910156 117.085938 227 116.007812 223.757812 116.007812 C 220.519531 116.007812 213.769531 117.089844 213.769531 117.089844 C 213.769531 117.089844 218.09375 108.71875 213.503906 108.179688 C 208.910156 107.636719 200.8125 116.550781 200.8125 116.550781 C 200.8125 116.550781 192.726562 110.070312 190.28125 111.417969 C 187.839844 112.769531 189.472656 114.660156 189.472656 114.660156 C 189.472656 114.660156 178.949219 115.46875 175.976562 120.058594 C 173.003906 124.648438 176.515625 127.347656 176.515625 127.347656 C 176.515625 127.347656 157.621094 140.304688 160.589844 145.160156 C 163.554688 150.019531 168.960938 145.4375 168.960938 145.4375 C 168.960938 145.4375 161.398438 164.875 162.480469 166.222656 C 163.5625 167.574219 168.699219 165.683594 168.699219 165.683594 C 168.699219 165.683594 168.429688 181.339844 172.480469 182.960938 C 176.53125 184.585938 177.339844 181.613281 177.339844 181.613281 C 177.339844 181.613281 179.496094 183.769531 184.359375 184.035156 C 189.226562 184.304688 190.835938 178.636719 190.835938 178.636719 C 190.835938 178.636719 185.4375 165.949219 185.710938 155.425781 C 185.984375 144.902344 188.921875 141.398438 188.921875 141.398438 Z M 188.921875 141.398438 "/>
<path style="fill-rule:nonzero;fill:rgb(61.960784%,61.960784%,61.960784%);fill-opacity:1;stroke-width:1;stroke-linecap:butt;stroke-linejoin:miter;stroke:rgb(14.901961%,19.607843%,21.960784%);stroke-opacity:1;stroke-miterlimit:10;" d="M 199.792969 164.132812 C 199.792969 164.132812 197.847656 174.246094 199.402344 176.386719 C 200.957031 178.527344 206.402344 176.386719 206.789062 175.222656 "/>
<path style="fill:none;stroke-width:1;stroke-linecap:butt;stroke-linejoin:miter;stroke:rgb(14.901961%,19.607843%,21.960784%);stroke-opacity:1;stroke-miterlimit:10;" d="M 191.71875 170.359375 C 195.960938 170.359375 199.398438 167.835938 199.398438 164.71875 C 199.398438 161.601562 195.960938 159.074219 191.71875 159.074219 C 187.476562 159.074219 184.035156 161.601562 184.035156 164.71875 C 184.035156 167.835938 187.476562 170.359375 191.71875 170.359375 Z M 191.71875 170.359375 "/>
<path style="fill:none;stroke-width:1;stroke-linecap:butt;stroke-linejoin:miter;stroke:rgb(14.901961%,19.607843%,21.960784%);stroke-opacity:1;stroke-miterlimit:10;" d="M 210.191406 169.972656 C 214.433594 169.972656 217.875 167.449219 217.875 164.332031 C 217.875 161.21875 214.433594 158.691406 210.191406 158.691406 C 205.949219 158.691406 202.511719 161.21875 202.511719 164.332031 C 202.511719 167.449219 205.949219 169.972656 210.191406 169.972656 Z M 210.191406 169.972656 "/>
<path style="fill:none;stroke-width:1;stroke-linecap:butt;stroke-linejoin:miter;stroke:rgb(14.901961%,19.607843%,21.960784%);stroke-opacity:1;stroke-miterlimit:10;" d="M 199.792969 164.132812 C 199.792969 164.132812 201.347656 162.96875 202.511719 164.332031 "/>
<path style="fill-rule:nonzero;fill:rgb(61.960784%,61.960784%,61.960784%);fill-opacity:1;stroke-width:1;stroke-linecap:butt;stroke-linejoin:miter;stroke:rgb(14.901961%,19.607843%,21.960784%);stroke-opacity:1;stroke-miterlimit:10;" d="M 135.789062 271.757812 C 135.789062 271.757812 145.554688 269.003906 148.558594 268.503906 C 151.5625 268.007812 157.578125 273.511719 158.578125 276.515625 C 159.578125 279.519531 158.300781 280.191406 158.300781 280.191406 L 138.289062 279.527344 Z M 135.789062 271.757812 "/>
<path style="fill-rule:nonzero;fill:rgb(61.960784%,61.960784%,61.960784%);fill-opacity:1;stroke-width:1;stroke-linecap:butt;stroke-linejoin:miter;stroke:rgb(14.901961%,19.607843%,21.960784%);stroke-opacity:1;stroke-miterlimit:10;" d="M 139.328125 270.789062 C 139.328125 270.789062 146.699219 273.550781 148.539062 274.65625 C 150.382812 275.765625 149.828125 277.972656 148.726562 279.074219 C 147.398438 280.183594 145.8125 280.945312 144.117188 281.285156 C 142.398438 281.386719 140.679688 281.386719 138.960938 281.285156 C 136.753906 281.101562 134.726562 281.472656 132.882812 281.472656 C 131.042969 281.472656 125.511719 280.921875 125.511719 280.921875 L 123.851562 279.8125 C 123.851562 279.8125 120.742188 280.734375 118.328125 281.679688 C 115.914062 282.625 116.667969 280.570312 118.511719 279.097656 C 120.351562 277.621094 124.960938 273.941406 125.699219 273.574219 C 126.441406 273.207031 135.832031 270.464844 135.832031 270.464844 Z M 139.328125 270.789062 "/>
<path style="fill-rule:nonzero;fill:rgb(61.960784%,61.960784%,61.960784%);fill-opacity:1;stroke-width:1;stroke-linecap:butt;stroke-linejoin:miter;stroke:rgb(14.901961%,19.607843%,21.960784%);stroke-opacity:1;stroke-miterlimit:10;" d="M 142.089844 271.523438 C 142.089844 271.523438 137.292969 269.3125 136.007812 269.3125 C 134.71875 269.3125 125.507812 272.421875 124.21875 273.363281 C 122.933594 274.300781 121.636719 283.128906 122.558594 283.683594 C 123.480469 284.234375 124.21875 282.574219 124.425781 281.472656 C 124.628906 280.371094 127.191406 274.46875 127.191406 274.46875 L 125.328125 283.867188 C 125.328125 283.867188 126.066406 285.335938 126.800781 284.050781 C 127.535156 282.761719 132.144531 273.914062 132.511719 273.363281 C 132.992188 272.847656 133.554688 272.414062 134.171875 272.074219 C 134.171875 272.074219 133.25 276.132812 132.511719 280 C 131.769531 283.867188 132.332031 284.976562 133.4375 285.15625 C 134.546875 285.335938 135.09375 282.761719 135.644531 281.472656 C 136.199219 280.1875 138.59375 272.808594 138.59375 272.808594 "/>
<path style="fill-rule:nonzero;fill:rgb(61.960784%,61.960784%,61.960784%);fill-opacity:1;stroke-width:1;stroke-linecap:butt;stroke-linejoin:miter;stroke:rgb(14.901961%,19.607843%,21.960784%);stroke-opacity:1;stroke-miterlimit:10;" d="M 147.414062 275.210938 C 147.414062 275.210938 141.890625 280.921875 141.148438 282.207031 C 140.410156 283.496094 140.414062 283.683594 142.445312 283.683594 C 144.472656 283.683594 150.734375 279.625 151.28125 279.074219 C 151.828125 278.519531 151.65625 276.863281 150.363281 275.757812 C 149.949219 275.4375 149.46875 275.222656 148.953125 275.125 C 148.441406 275.03125 147.914062 275.058594 147.414062 275.210938 Z M 147.414062 275.210938 "/>
<path style="fill-rule:nonzero;fill:rgb(61.960784%,61.960784%,61.960784%);fill-opacity:1;stroke-width:1;stroke-linecap:butt;stroke-linejoin:miter;stroke:rgb(14.901961%,19.607843%,21.960784%);stroke-opacity:1;stroke-miterlimit:10;" d="M 181.910156 274.574219 C 181.910156 274.574219 174.539062 276.957031 172.730469 278.308594 C 170.917969 279.65625 168.308594 281.144531 168.871094 281.597656 C 169.4375 282.050781 171.253906 281.597656 171.820312 281.144531 C 172.386719 280.691406 174.992188 280.234375 174.992188 280.234375 C 174.992188 280.234375 178.054688 278.421875 180.4375 276.953125 C 182.816406 275.484375 184.628906 273.890625 181.910156 274.574219 Z M 181.910156 274.574219 "/>
<path style="fill-rule:nonzero;fill:rgb(61.960784%,61.960784%,61.960784%);fill-opacity:1;stroke-width:1;stroke-linecap:butt;stroke-linejoin:miter;stroke:rgb(14.901961%,19.607843%,21.960784%);stroke-opacity:1;stroke-miterlimit:10;" d="M 222.59375 262.097656 C 222.59375 262.097656 202.070312 265.828125 194.640625 268.4375 C 187.214844 271.042969 184.261719 272.859375 180.546875 275.484375 C 176.835938 278.109375 169.308594 283.066406 170.429688 283.9375 C 171.546875 284.808594 175.445312 281.753906 176.105469 281.101562 C 176.765625 280.445312 181.5625 278.480469 181.5625 278.480469 L 184.769531 276.839844 C 184.769531 276.839844 179.9375 282.792969 178.195312 284.304688 C 176.453125 285.816406 177.632812 286.761719 178.941406 286.324219 C 180.253906 285.890625 182.730469 283.285156 182.730469 283.285156 L 190.710938 278.035156 C 190.710938 278.035156 187.433594 282.625 185.902344 283.929688 C 184.371094 285.238281 187.652344 286.339844 188.308594 285.242188 C 188.96875 284.148438 192.242188 281.3125 192.242188 281.3125 C 192.242188 281.3125 197.695312 278.476562 199.007812 277.382812 C 200.320312 276.285156 203.59375 273.230469 203.59375 273.230469 L 228.050781 275.199219 C 228.050781 275.199219 229.578125 274.328125 228.710938 269.300781 C 227.839844 264.273438 222.59375 262.097656 222.59375 262.097656 Z M 222.59375 262.097656 "/>
<path style=" stroke:none;fill-rule:nonzero;fill:rgb(100%,100%,100%);fill-opacity:1;" d="M 239.191406 223.445312 L 251.199219 253.152344 L 231.761719 259.921875 L 237.222656 275.863281 C 237.222656 275.863281 251.183594 275.898438 262.105469 275.242188 C 273.027344 274.582031 280.691406 267.996094 278.941406 260.140625 C 277.195312 252.28125 270.644531 240.917969 265.402344 227.378906 C 260.15625 213.835938 261.78125 205.765625 259.378906 201.613281 C 256.980469 197.464844 250.207031 196.371094 250.207031 196.371094 L 246.472656 195.75 "/>
<use xlink:href="#surface86" mask="url(#mask27)"/>
<path style="fill:none;stroke-width:1;stroke-linecap:butt;stroke-linejoin:miter;stroke:rgb(14.901961%,19.607843%,21.960784%);stroke-opacity:1;stroke-miterlimit:10;" d="M 239.191406 223.445312 L 251.199219 253.152344 L 231.761719 259.921875 L 237.222656 275.863281 C 237.222656 275.863281 251.183594 275.898438 262.105469 275.242188 C 273.027344 274.582031 280.691406 267.996094 278.941406 260.140625 C 277.195312 252.28125 270.644531 240.917969 265.402344 227.378906 C 260.15625 213.835938 261.78125 205.765625 259.378906 201.613281 C 256.980469 197.464844 250.207031 196.371094 250.207031 196.371094 L 246.472656 195.75 "/>
<path style="fill:none;stroke-width:1;stroke-linecap:butt;stroke-linejoin:miter;stroke:rgb(14.901961%,19.607843%,21.960784%);stroke-opacity:1;stroke-miterlimit:10;" d="M 262.894531 250.132812 C 258.929688 250.863281 255.023438 251.871094 251.199219 253.148438 C 251.199219 253.148438 259.496094 247.6875 264.082031 247.25 "/>
<path style="fill:none;stroke-width:1;stroke-linecap:butt;stroke-linejoin:miter;stroke:rgb(14.901961%,19.607843%,21.960784%);stroke-opacity:1;stroke-miterlimit:10;" d="M 268.453125 249.871094 C 267.59375 249.746094 266.722656 249.71875 265.855469 249.78125 "/>
<path style="fill-rule:nonzero;fill:rgb(14.901961%,19.607843%,21.960784%);fill-opacity:1;stroke-width:1;stroke-linecap:butt;stroke-linejoin:miter;stroke:rgb(14.901961%,19.607843%,21.960784%);stroke-opacity:1;stroke-miterlimit:10;" d="M 237.441406 257.507812 C 237.441406 257.507812 241.859375 261.730469 243.164062 265.003906 C 244.472656 268.273438 243.992188 277.164062 243.121094 278.035156 C 242.25 278.90625 225.996094 278.800781 223.324219 275.460938 C 222.625 274.589844 227.398438 272.578125 224.996094 267.769531 C 222.59375 262.964844 221.5 262.535156 221.5 262.535156 C 221.5 262.535156 219.535156 261.4375 223.246094 259.039062 C 226.960938 256.636719 235.476562 254.894531 237.441406 257.507812 Z M 237.441406 257.507812 "/>
<path style="fill-rule:nonzero;fill:rgb(14.901961%,19.607843%,21.960784%);fill-opacity:1;stroke-width:1;stroke-linecap:butt;stroke-linejoin:round;stroke:rgb(14.901961%,19.607843%,21.960784%);stroke-opacity:1;stroke-miterlimit:4;" d="M 276.160156 291.183594 L 260.039062 291.183594 L 258.023438 259.3125 L 278.175781 259.3125 Z M 276.160156 291.183594 "/>
<path style="fill-rule:nonzero;fill:rgb(100%,100%,100%);fill-opacity:1;stroke-width:1;stroke-linecap:butt;stroke-linejoin:round;stroke:rgb(14.901961%,19.607843%,21.960784%);stroke-opacity:1;stroke-miterlimit:4;" d="M 279.074219 259.363281 L 257.136719 259.363281 L 257.136719 264.003906 L 279.074219 264.003906 Z M 279.074219 259.363281 "/>
<path style="fill-rule:nonzero;fill:rgb(100%,100%,100%);fill-opacity:1;stroke-width:1;stroke-linecap:butt;stroke-linejoin:round;stroke:rgb(14.901961%,19.607843%,21.960784%);stroke-opacity:1;stroke-miterlimit:4;" d="M 279.074219 259.535156 L 257.136719 259.535156 L 259.324219 256.785156 L 276.878906 256.785156 Z M 279.074219 259.535156 "/>
<path style="fill-rule:nonzero;fill:rgb(100%,100%,100%);fill-opacity:1;stroke-width:1;stroke-linecap:butt;stroke-linejoin:round;stroke:rgb(14.901961%,19.607843%,21.960784%);stroke-opacity:1;stroke-miterlimit:4;" d="M 276.753906 281.835938 L 277.554688 269.140625 L 258.644531 269.140625 L 259.449219 281.835938 Z M 276.753906 281.835938 "/>
<path style="fill-rule:nonzero;fill:rgb(14.901961%,19.607843%,21.960784%);fill-opacity:1;stroke-width:1;stroke-linecap:butt;stroke-linejoin:round;stroke:rgb(14.901961%,19.607843%,21.960784%);stroke-opacity:1;stroke-miterlimit:4;" d="M 183.253906 293.304688 L 203.121094 288.054688 L 203.121094 290.742188 L 183.253906 296.308594 Z M 183.253906 293.304688 "/>
<path style="fill-rule:nonzero;fill:rgb(100%,100%,100%);fill-opacity:1;stroke-width:1;stroke-linecap:butt;stroke-linejoin:round;stroke:rgb(14.901961%,19.607843%,21.960784%);stroke-opacity:1;stroke-miterlimit:4;" d="M 203.121094 288.054688 L 99.253906 288.054688 L 79.175781 293.304688 L 183.253906 293.304688 Z M 203.121094 288.054688 "/>
<path style="fill-rule:nonzero;fill:rgb(100%,100%,100%);fill-opacity:1;stroke-width:1;stroke-linecap:butt;stroke-linejoin:round;stroke:rgb(14.901961%,19.607843%,21.960784%);stroke-opacity:1;stroke-miterlimit:4;" d="M 183.253906 233.28125 L 79.175781 233.28125 L 79.175781 296.308594 L 183.253906 296.308594 Z M 183.253906 233.28125 "/>
<path style="fill-rule:nonzero;fill:rgb(14.901961%,19.607843%,21.960784%);fill-opacity:1;stroke-width:1;stroke-linecap:butt;stroke-linejoin:round;stroke:rgb(14.901961%,19.607843%,21.960784%);stroke-opacity:1;stroke-miterlimit:4;" d="M 183.253906 242.398438 C 160.613281 243.476562 147.128906 264.34375 127.09375 278.324219 C 108.832031 291.078125 86.277344 293.253906 79.199219 293.597656 L 79.199219 296.308594 L 183.253906 296.308594 Z M 183.253906 242.398438 "/>
<path style="fill-rule:nonzero;fill:rgb(100%,100%,100%);fill-opacity:1;stroke-width:1;stroke-linecap:butt;stroke-linejoin:miter;stroke:rgb(14.901961%,19.607843%,21.960784%);stroke-opacity:1;stroke-miterlimit:10;" d="M 183.253906 293.304688 L 79.175781 293.304688 L 79.175781 296.308594 L 183.253906 296.308594 Z M 183.253906 293.304688 "/>
<path style="fill-rule:nonzero;fill:rgb(100%,100%,100%);fill-opacity:1;stroke-width:1;stroke-linecap:round;stroke-linejoin:round;stroke:rgb(14.901961%,19.607843%,21.960784%);stroke-opacity:1;stroke-miterlimit:4;" d="M 48.359375 272.511719 C 48.359375 272.511719 39.691406 258.640625 46.648438 250.835938 C 53.609375 243.027344 64.855469 246.785156 67.175781 254.011719 C 69.496094 261.238281 64.574219 273.382812 64.574219 273.382812 Z M 48.359375 272.511719 "/>
<path style="fill-rule:nonzero;fill:rgb(100%,100%,100%);fill-opacity:1;stroke-width:1;stroke-linecap:round;stroke-linejoin:round;stroke:rgb(14.901961%,19.607843%,21.960784%);stroke-opacity:1;stroke-miterlimit:4;" d="M 48.648438 256.613281 C 47.203125 256.613281 41.710938 254.589844 39.976562 251.992188 C 38.242188 249.390625 37.941406 243.605469 42.867188 243.605469 C 47.792969 243.605469 49.519531 252.277344 49.519531 252.277344 L 49.804688 255.453125 "/>
<path style="fill-rule:nonzero;fill:rgb(100%,100%,100%);fill-opacity:1;stroke-width:1;stroke-linecap:round;stroke-linejoin:round;stroke:rgb(14.901961%,19.607843%,21.960784%);stroke-opacity:1;stroke-miterlimit:4;" d="M 53.09375 251.214844 C 51.800781 250.589844 47.789062 246.3125 47.398438 243.207031 C 47.003906 240.105469 49.332031 234.804688 53.730469 236.988281 C 58.125 239.171875 55.804688 247.71875 55.804688 247.71875 L 54.644531 250.691406 "/>
<path style="fill-rule:nonzero;fill:rgb(100%,100%,100%);fill-opacity:1;stroke-width:1;stroke-linecap:round;stroke-linejoin:round;stroke:rgb(14.901961%,19.607843%,21.960784%);stroke-opacity:1;stroke-miterlimit:4;" d="M 58.34375 252.667969 C 57.621094 251.425781 56.652344 245.644531 58.046875 242.847656 C 59.4375 240.046875 64.316406 236.925781 66.753906 241.191406 C 69.191406 245.460938 62.53125 251.269531 62.53125 251.269531 L 59.910156 253.097656 "/>
<path style="fill-rule:nonzero;fill:rgb(100%,100%,100%);fill-opacity:1;stroke-width:1;stroke-linecap:round;stroke-linejoin:round;stroke:rgb(14.901961%,19.607843%,21.960784%);stroke-opacity:1;stroke-miterlimit:4;" d="M 60.066406 263.03125 C 59.832031 261.601562 60.914062 255.855469 63.175781 253.699219 C 65.441406 251.550781 71.105469 250.3125 71.921875 255.15625 C 72.738281 260.003906 64.457031 263.15625 64.457031 263.15625 L 61.347656 263.964844 "/>
<path style="fill:none;stroke-width:1;stroke-linecap:round;stroke-linejoin:round;stroke:rgb(100%,100%,100%);stroke-opacity:1;stroke-miterlimit:4;" d="M 40.609375 248.5 L 41.585938 250.039062 "/>
<path style="fill:none;stroke-width:1;stroke-linecap:round;stroke-linejoin:round;stroke:rgb(100%,100%,100%);stroke-opacity:1;stroke-miterlimit:4;" d="M 43.402344 252.269531 L 44.933594 253.519531 "/>
<path style="fill:none;stroke-width:1;stroke-linecap:round;stroke-linejoin:round;stroke:rgb(100%,100%,100%);stroke-opacity:1;stroke-miterlimit:4;" d="M 41.730469 245.570312 L 43.261719 247.804688 "/>
<path style="fill:none;stroke-width:1;stroke-linecap:round;stroke-linejoin:round;stroke:rgb(100%,100%,100%);stroke-opacity:1;stroke-miterlimit:4;" d="M 45.355469 249.621094 L 47.03125 252.6875 "/>
<path style="fill:none;stroke-width:1;stroke-linecap:round;stroke-linejoin:round;stroke:rgb(100%,100%,100%);stroke-opacity:1;stroke-miterlimit:4;" d="M 49.257812 242.226562 L 49.816406 243.898438 "/>
<path style="fill:none;stroke-width:1;stroke-linecap:round;stroke-linejoin:round;stroke:rgb(100%,100%,100%);stroke-opacity:1;stroke-miterlimit:4;" d="M 51.210938 246.964844 L 52.1875 248.363281 "/>
<path style="fill:none;stroke-width:1;stroke-linecap:round;stroke-linejoin:round;stroke:rgb(100%,100%,100%);stroke-opacity:1;stroke-miterlimit:4;" d="M 50.792969 238.878906 L 52.050781 241.664062 "/>
<path style="fill:none;stroke-width:1;stroke-linecap:round;stroke-linejoin:round;stroke:rgb(100%,100%,100%);stroke-opacity:1;stroke-miterlimit:4;" d="M 45.910156 258.546875 L 46.332031 261.054688 "/>
<path style="fill:none;stroke-width:1;stroke-linecap:round;stroke-linejoin:round;stroke:rgb(100%,100%,100%);stroke-opacity:1;stroke-miterlimit:4;" d="M 47.167969 263.421875 L 47.726562 265.519531 "/>
<path style="fill:none;stroke-width:1;stroke-linecap:round;stroke-linejoin:round;stroke:rgb(100%,100%,100%);stroke-opacity:1;stroke-miterlimit:4;" d="M 48.558594 258.683594 L 49.121094 261.46875 "/>
<path style="fill:none;stroke-width:1;stroke-linecap:round;stroke-linejoin:round;stroke:rgb(100%,100%,100%);stroke-opacity:1;stroke-miterlimit:4;" d="M 50.375 263.421875 L 50.792969 265.519531 "/>
<path style="fill:none;stroke-width:1;stroke-linecap:round;stroke-linejoin:round;stroke:rgb(100%,100%,100%);stroke-opacity:1;stroke-miterlimit:4;" d="M 51.351562 255.058594 L 52.1875 258.964844 "/>
<path style="fill:none;stroke-width:1;stroke-linecap:round;stroke-linejoin:round;stroke:rgb(100%,100%,100%);stroke-opacity:1;stroke-miterlimit:4;" d="M 53.304688 262.726562 L 53.441406 264.542969 "/>
<path style="fill:none;stroke-width:1;stroke-linecap:round;stroke-linejoin:round;stroke:rgb(100%,100%,100%);stroke-opacity:1;stroke-miterlimit:4;" d="M 54.835938 253.800781 L 55.53125 257.425781 "/>
<path style="fill:none;stroke-width:1;stroke-linecap:round;stroke-linejoin:round;stroke:rgb(100%,100%,100%);stroke-opacity:1;stroke-miterlimit:4;" d="M 55.53125 261.195312 L 55.8125 264.960938 "/>
<path style="fill:none;stroke-width:1;stroke-linecap:round;stroke-linejoin:round;stroke:rgb(100%,100%,100%);stroke-opacity:1;stroke-miterlimit:4;" d="M 58.886719 255.195312 L 58.886719 258.265625 "/>
<path style="fill:none;stroke-width:1;stroke-linecap:round;stroke-linejoin:round;stroke:rgb(100%,100%,100%);stroke-opacity:1;stroke-miterlimit:4;" d="M 58.460938 262.171875 L 58.605469 264.542969 "/>
<path style="fill:none;stroke-width:1;stroke-linecap:round;stroke-linejoin:round;stroke:rgb(100%,100%,100%);stroke-opacity:1;stroke-miterlimit:4;" d="M 62.367188 240.6875 L 61.671875 242.367188 "/>
<path style="fill:none;stroke-width:1;stroke-linecap:round;stroke-linejoin:round;stroke:rgb(100%,100%,100%);stroke-opacity:1;stroke-miterlimit:4;" d="M 61.390625 244.316406 L 60.695312 246.691406 "/>
<path style="fill:none;stroke-width:1;stroke-linecap:round;stroke-linejoin:round;stroke:rgb(100%,100%,100%);stroke-opacity:1;stroke-miterlimit:4;" d="M 65.433594 243.898438 L 64.320312 246.132812 "/>
<path style="fill:none;stroke-width:1;stroke-linecap:round;stroke-linejoin:round;stroke:rgb(100%,100%,100%);stroke-opacity:1;stroke-miterlimit:4;" d="M 61.953125 248.644531 L 60.695312 250.039062 "/>
<path style="fill:none;stroke-width:1;stroke-linecap:round;stroke-linejoin:round;stroke:rgb(100%,100%,100%);stroke-opacity:1;stroke-miterlimit:4;" d="M 59.300781 243.761719 L 58.886719 245.570312 "/>
<path style="fill:none;stroke-width:1;stroke-linecap:round;stroke-linejoin:round;stroke:rgb(100%,100%,100%);stroke-opacity:1;stroke-miterlimit:4;" d="M 65.433594 253.800781 L 63.90625 256.3125 "/>
<path style="fill:none;stroke-width:1;stroke-linecap:round;stroke-linejoin:round;stroke:rgb(100%,100%,100%);stroke-opacity:1;stroke-miterlimit:4;" d="M 62.929688 257.84375 L 62.089844 260.078125 "/>
<path style="fill:none;stroke-width:1;stroke-linecap:round;stroke-linejoin:round;stroke:rgb(100%,100%,100%);stroke-opacity:1;stroke-miterlimit:4;" d="M 64.183594 261.195312 L 66.691406 259.796875 "/>
<path style="fill:none;stroke-width:1;stroke-linecap:round;stroke-linejoin:round;stroke:rgb(100%,100%,100%);stroke-opacity:1;stroke-miterlimit:4;" d="M 68.226562 253.800781 L 66.96875 255.898438 "/>
<path style="fill:none;stroke-width:1;stroke-linecap:round;stroke-linejoin:round;stroke:rgb(100%,100%,100%);stroke-opacity:1;stroke-miterlimit:4;" d="M 69.484375 256.171875 L 67.808594 257.425781 "/>
<path style="fill-rule:nonzero;fill:rgb(14.901961%,19.607843%,21.960784%);fill-opacity:1;stroke-width:1;stroke-linecap:round;stroke-linejoin:round;stroke:rgb(14.901961%,19.607843%,21.960784%);stroke-opacity:1;stroke-miterlimit:4;" d="M 67.679688 267.671875 L 43.96875 267.671875 L 43.96875 291.382812 L 67.679688 291.382812 Z M 67.679688 267.671875 "/>
</g>
</svg>
